<svg id="Layer_1" data-name="Layer 1" xmlns="http://www.w3.org/2000/svg" xmlns:xlink="http://www.w3.org/1999/xlink" viewBox="0 0 63.52 65.75"><defs><clipPath id="clip-path" transform="translate(5.1 1.75)"><path d="M8.06,12.26s3.44,5.13,6.21,6.81c-1.43-3.32-1.72-3.4-1.81-6s2-5.32,5.39-6.58c3.83-1.43,7-1.63,10.55-.16s4.25,2.22,5.27,5.28.12,7.25-.59,9c-.8,2-3.29,6-4.09,5.87s-1.82-2-3.36-2.42a4.18,4.18,0,0,0-4,1.06A4.91,4.91,0,0,0,20,28.77s-2,2.49-8.53,2.49c-5.24,0-9.3-6-8.8-10.44C3.05,17.28,4.58,13.52,8.06,12.26Z" style="fill:none"/></clipPath><clipPath id="clip-path-2" transform="translate(5.1 1.75)"><path d="M27.88,30.33a23.3,23.3,0,0,0,5.77-6.95c1.68-3,3.43-8.49,6.16-8.49,2.43,0,6,3.52,7.31,7.24.91,2.53.84,5.5,0,7.09-1.77,3.36-6.62,3.91-6.62,3.91a10.78,10.78,0,0,0,5.6.39c.83-.17.25,3.85-2.75,6.61-1.28,1.19-4,2.43-6.06,2s-4.5-1.28-5.9-2.81-3.59-4.19-3.93-7.24A2.36,2.36,0,0,1,27.88,30.33Z" style="fill:none"/></clipPath><clipPath id="clip-path-3" transform="translate(5.1 1.75)"><path d="M15.55,32.39c1.73-.67,7.54-2.16,9.27-.94,1.3.92,2.47,4.13,1.53,7.62a7.53,7.53,0,0,1-4.55,5.36c-3.13.79-5.73,0-8.38-1.3-1.08-.5-4.17-2.22-4.7-4.76C8.25,36.16,12.48,33.56,15.55,32.39Z" style="fill:none"/></clipPath></defs><g id="Ellipse_2" data-name="Ellipse 2"><ellipse cx="31.76" cy="32.88" rx="31.76" ry="32.88" style="fill:none"/></g><g style="clip-path:url(#clip-path)"><rect x="7.24" y="6.58" width="32.56" height="26.43" style="fill:#f1bc21"/><circle cx="20.29" cy="25.92" r="8.1" style="fill:#f1bc21"/><circle cx="20.24" cy="26.01" r="7.97" style="fill:#f1bd22"/><circle cx="20.19" cy="26.1" r="7.84" style="fill:#f1bd23"/><circle cx="20.14" cy="26.19" r="7.71" style="fill:#f1be24"/><circle cx="20.09" cy="26.28" r="7.57" style="fill:#f1bf25"/><circle cx="20.04" cy="26.37" r="7.44" style="fill:#f1c026"/><circle cx="20" cy="26.46" r="7.31" style="fill:#f1c027"/><circle cx="19.95" cy="26.55" r="7.18" style="fill:#f1c129"/><circle cx="19.9" cy="26.64" r="7.05" style="fill:#f1c22a"/><circle cx="19.85" cy="26.73" r="6.92" style="fill:#f1c22b"/><circle cx="19.8" cy="26.82" r="6.79" style="fill:#f1c32c"/><circle cx="19.75" cy="26.91" r="6.66" style="fill:#f1c42d"/><circle cx="19.7" cy="27" r="6.53" style="fill:#f1c42e"/><circle cx="19.65" cy="27.09" r="6.39" style="fill:#f1c52f"/><circle cx="19.61" cy="27.19" r="6.26" style="fill:#f1c630"/><circle cx="19.56" cy="27.28" r="6.13" style="fill:#f1c631"/><circle cx="19.51" cy="27.37" r="6" style="fill:#f1c732"/><circle cx="19.46" cy="27.46" r="5.87" style="fill:#f1c833"/><circle cx="19.41" cy="27.55" r="5.74" style="fill:#f1c834"/><circle cx="19.36" cy="27.64" r="5.61" style="fill:#f1c935"/><circle cx="19.31" cy="27.73" r="5.48" style="fill:#f1ca36"/><circle cx="19.26" cy="27.82" r="5.35" style="fill:#f1ca37"/><circle cx="19.22" cy="27.91" r="5.21" style="fill:#f1cb38"/><circle cx="19.17" cy="28" r="5.08" style="fill:#f1cc39"/><circle cx="19.12" cy="28.09" r="4.95" style="fill:#f1cc3a"/><circle cx="19.07" cy="28.18" r="4.82" style="fill:#f1cd3b"/><circle cx="19.02" cy="28.27" r="4.69" style="fill:#f1ce3b"/><circle cx="18.97" cy="28.36" r="4.56" style="fill:#f1ce3c"/><circle cx="18.92" cy="28.45" r="4.43" style="fill:#f1cf3d"/><circle cx="18.88" cy="28.54" r="4.3" style="fill:#f1d03e"/><circle cx="18.83" cy="28.63" r="4.16" style="fill:#f1d03f"/><circle cx="18.78" cy="28.72" r="4.03" style="fill:#f0d140"/><circle cx="18.73" cy="28.81" r="3.9" style="fill:#f0d241"/><circle cx="18.68" cy="28.9" r="3.77" style="fill:#f0d242"/><circle cx="18.63" cy="28.99" r="3.64" style="fill:#f0d343"/><circle cx="18.58" cy="29.08" r="3.51" style="fill:#f0d344"/><circle cx="18.53" cy="29.17" r="3.38" style="fill:#f0d445"/><circle cx="18.49" cy="29.26" r="3.25" style="fill:#f0d546"/><circle cx="18.44" cy="29.35" r="3.12" style="fill:#f0d547"/><circle cx="18.39" cy="29.45" r="2.98" style="fill:#f0d648"/><circle cx="18.34" cy="29.54" r="2.85" style="fill:#f0d649"/><circle cx="18.29" cy="29.63" r="2.72" style="fill:#f0d74a"/><circle cx="18.24" cy="29.72" r="2.59" style="fill:#f0d84b"/><circle cx="18.19" cy="29.81" r="2.46" style="fill:#f0d84c"/><circle cx="18.14" cy="29.9" r="2.33" style="fill:#f0d94d"/><circle cx="18.1" cy="29.99" r="2.2" style="fill:#f0da4e"/><circle cx="18.05" cy="30.08" r="2.07" style="fill:#f0da4f"/><circle cx="18" cy="30.17" r="1.94" style="fill:#f0db50"/><circle cx="17.95" cy="30.26" r="1.8" style="fill:#f0dc50"/><circle cx="17.9" cy="30.35" r="1.67" style="fill:#f0dc51"/><circle cx="17.85" cy="30.44" r="1.54" style="fill:#f0dd52"/><circle cx="17.8" cy="30.53" r="1.41" style="fill:#f0de53"/><circle cx="17.75" cy="30.62" r="1.28" style="fill:#f0de54"/><circle cx="17.71" cy="30.71" r="1.15" style="fill:#f0df55"/></g><g style="clip-path:url(#clip-path-2)"><rect x="32.5" y="16.63" width="20.63" height="27.67" style="fill:#f1bc21"/><path d="M37.27,32.23c-1.56,6.89-8.8,11.13-16.17,9.46h5.3V16.53H21.32a14.42,14.42,0,0,1,5.42.2C34.11,18.4,38.83,25.33,37.27,32.23Z" transform="translate(5.1 1.75)" style="fill:#f1bc21"/><path d="M36.78,32.18C35.25,39,28.15,43.11,20.91,41.47H26.4V16.78H21.13a14.3,14.3,0,0,1,5.32.19C33.69,18.61,38.31,25.42,36.78,32.18Z" transform="translate(5.1 1.75)" style="fill:#f1bd22"/><path d="M36.3,32.14c-1.5,6.64-8.48,10.72-15.58,9.11H26.4v-24h-.24C33.26,18.82,37.8,25.5,36.3,32.14Z" transform="translate(5.1 1.75)" style="fill:#f1bd23"/><path d="M35.81,32.09C34.34,38.6,27.5,42.61,20.54,41H26.4V17.46h-.54C32.83,19,37.28,25.58,35.81,32.09Z" transform="translate(5.1 1.75)" style="fill:#f1be24"/><path d="M35.32,32.05c-1.44,6.38-8.14,10.3-15,8.76h6V17.7h-.83C32.4,19.24,36.76,25.67,35.32,32.05Z" transform="translate(5.1 1.75)" style="fill:#f1bf25"/><path d="M34.83,32c-1.41,6.25-8,10.09-14.67,8.58H26.4V17.94H25.28C32,19.45,36.25,25.75,34.83,32Z" transform="translate(5.1 1.75)" style="fill:#f1c026"/><path d="M34.35,32C33,38.09,26.53,41.85,20,40.37H26.4V18.19H25C31.54,19.67,35.73,25.83,34.35,32Z" transform="translate(5.1 1.75)" style="fill:#f1c027"/><path d="M33.86,31.92c-1.36,6-7.66,9.68-14.08,8.23H26.4V18.43H24.7C31.11,19.88,35.22,25.92,33.86,31.92Z" transform="translate(5.1 1.75)" style="fill:#f1c129"/><path d="M33.37,31.87c-1.32,5.87-7.49,9.48-13.77,8.06h6.8V18.67h-2C30.68,20.09,34.7,26,33.37,31.87Z" transform="translate(5.1 1.75)" style="fill:#f1c22a"/><path d="M32.89,31.83c-1.3,5.74-7.34,9.27-13.48,7.88h7V18.91H24.11C30.26,20.3,34.18,26.08,32.89,31.83Z" transform="translate(5.1 1.75)" style="fill:#f1c22b"/><path d="M32.4,31.78a10.08,10.08,0,0,1-4.81,6.47,11.3,11.3,0,0,1-3.95,1.4H26.4V19.16H23.82C29.83,20.51,33.67,26.17,32.4,31.78Z" transform="translate(5.1 1.75)" style="fill:#f1c32c"/><path d="M31.91,31.74a9.83,9.83,0,0,1-4.7,6.32,11,11,0,0,1-3.86,1.37h3v-20H23.53C29.4,20.73,33.15,26.25,31.91,31.74Z" transform="translate(5.1 1.75)" style="fill:#f1c42d"/><path d="M31.42,31.7a9.56,9.56,0,0,1-4.59,6.17,10.69,10.69,0,0,1-3.77,1.34H26.4V19.64H23.23C29,20.94,32.64,26.33,31.42,31.7Z" transform="translate(5.1 1.75)" style="fill:#f1c42e"/><path d="M30.94,31.65a9.35,9.35,0,0,1-4.49,6A10.36,10.36,0,0,1,22.77,39H26.4V19.88H22.94C28.54,21.15,32.12,26.42,30.94,31.65Z" transform="translate(5.1 1.75)" style="fill:#f1c52f"/><path d="M30.45,31.61a9.19,9.19,0,0,1-4.37,5.88h.32V20.13H22.65C28.11,21.36,31.6,26.5,30.45,31.61Z" transform="translate(5.1 1.75)" style="fill:#f1c630"/><path d="M30,31.56A8.93,8.93,0,0,1,25.7,37.3h.7V20.37h-4C27.68,21.57,31.09,26.58,30,31.56Z" transform="translate(5.1 1.75)" style="fill:#f1c631"/><path d="M29.48,31.52a8.73,8.73,0,0,1-4.16,5.59H26.4V20.61H22.07C27.25,21.79,30.57,26.67,29.48,31.52Z" transform="translate(5.1 1.75)" style="fill:#f1c732"/><path d="M29,31.47a8.49,8.49,0,0,1-4,5.45H26.4V20.86H21.77C26.83,22,30.06,26.75,29,31.47Z" transform="translate(5.1 1.75)" style="fill:#f1c833"/><path d="M28.5,31.43a8.19,8.19,0,0,1-3.94,5.29H26.4V21.1H21.48C26.4,22.21,29.54,26.84,28.5,31.43Z" transform="translate(5.1 1.75)" style="fill:#f1c834"/><path d="M28,31.39a8,8,0,0,1-3.82,5.14H26.4V21.34H21.19A8.6,8.6,0,0,1,28,31.39Z" transform="translate(5.1 1.75)" style="fill:#f1c935"/><path d="M27.53,31.34a7.79,7.79,0,0,1-3.72,5H26.4V21.58H20.9A8.36,8.36,0,0,1,27.53,31.34Z" transform="translate(5.1 1.75)" style="fill:#f1ca36"/><path d="M27,31.3a7.58,7.58,0,0,1-3.61,4.85h3V21.83H20.6A8.1,8.1,0,0,1,27,31.3Z" transform="translate(5.1 1.75)" style="fill:#f1ca37"/><path d="M26.55,31.25A7.3,7.3,0,0,1,23.05,36H26.4V22.07H20.31A7.85,7.85,0,0,1,26.55,31.25Z" transform="translate(5.1 1.75)" style="fill:#f1cb38"/><path d="M26.4,31.21v-8.9H20a7.61,7.61,0,0,1,6,8.9Z" transform="translate(5.1 1.75)" style="fill:#f1cc39"/><path d="M26.4,31.16V22.55H19.73a7.38,7.38,0,0,1,5.85,8.61Z" transform="translate(5.1 1.75)" style="fill:#f1cc3a"/><path d="M26.4,31.12v0Z" transform="translate(5.1 1.75)" style="fill:#f1cd3b"/><path d="M26.4,31.08v0Z" transform="translate(5.1 1.75)" style="fill:#f1ce3b"/><path d="M26.4,31v0Z" transform="translate(5.1 1.75)" style="fill:#f1ce3c"/><path d="M26.4,31v0Z" transform="translate(5.1 1.75)" style="fill:#f1cf3d"/><path d="M26.4,30.94v0Z" transform="translate(5.1 1.75)" style="fill:#f1d03e"/><path d="M26.4,30.9v0Z" transform="translate(5.1 1.75)" style="fill:#f1d03f"/><path d="M26.4,30.85v0Z" transform="translate(5.1 1.75)" style="fill:#f0d140"/><path d="M26.4,30.81v0Z" transform="translate(5.1 1.75)" style="fill:#f0d241"/><path d="M26.4,30.77v0Z" transform="translate(5.1 1.75)" style="fill:#f0d242"/><path d="M26.4,30.72v0Z" transform="translate(5.1 1.75)" style="fill:#f0d343"/><path d="M26.4,30.68v0Z" transform="translate(5.1 1.75)" style="fill:#f0d344"/><path d="M26.4,30.63v0Z" transform="translate(5.1 1.75)" style="fill:#f0d445"/><path d="M26.4,30.59v0Z" transform="translate(5.1 1.75)" style="fill:#f0d546"/><path d="M26.4,30.55v0Z" transform="translate(5.1 1.75)" style="fill:#f0d547"/><path d="M26.4,30.5v0Z" transform="translate(5.1 1.75)" style="fill:#f0d648"/><path d="M26.4,30.46v0Z" transform="translate(5.1 1.75)" style="fill:#f0d649"/><path d="M26.4,30.41v0Z" transform="translate(5.1 1.75)" style="fill:#f0d74a"/><path d="M26.4,30.37v0Z" transform="translate(5.1 1.75)" style="fill:#f0d84b"/><path d="M26.4,30.32v0Z" transform="translate(5.1 1.75)" style="fill:#f0d84c"/><path d="M26.4,30.28v0Z" transform="translate(5.1 1.75)" style="fill:#f0d94d"/><path d="M26.4,30.24v0Z" transform="translate(5.1 1.75)" style="fill:#f0da4e"/><path d="M26.4,30.19v0Z" transform="translate(5.1 1.75)" style="fill:#f0da4f"/><path d="M26.4,30.15v0Z" transform="translate(5.1 1.75)" style="fill:#f0db50"/><path d="M26.4,30.1v0Z" transform="translate(5.1 1.75)" style="fill:#f0dc50"/><path d="M26.4,30.06v0Z" transform="translate(5.1 1.75)" style="fill:#f0dc51"/><path d="M26.4,30v0Z" transform="translate(5.1 1.75)" style="fill:#f0dd52"/><path d="M26.4,30v0Z" transform="translate(5.1 1.75)" style="fill:#f0de53"/><path d="M26.4,29.93v0Z" transform="translate(5.1 1.75)" style="fill:#f0de54"/><path d="M26.4,29.88v0Z" transform="translate(5.1 1.75)" style="fill:#f0df55"/></g><path d="M27.88,30.33a23.3,23.3,0,0,0,5.77-6.95c1.68-3,3.43-8.49,6.16-8.49" transform="translate(5.1 1.75)" style="fill:none"/><g style="clip-path:url(#clip-path-3)"><rect x="13.35" y="31.98" width="19.04" height="14.99" style="fill:#f1bc21"/><circle cx="21.39" cy="36.54" r="7.1" style="fill:#f1bc21"/><circle cx="21.35" cy="36.44" r="6.98" style="fill:#f1bd22"/><circle cx="21.3" cy="36.35" r="6.86" style="fill:#f1bd23"/><circle cx="21.26" cy="36.26" r="6.74" style="fill:#f1be24"/><circle cx="21.22" cy="36.17" r="6.62" style="fill:#f1bf25"/><circle cx="21.18" cy="36.08" r="6.51" style="fill:#f1c026"/><circle cx="21.14" cy="35.99" r="6.39" style="fill:#f1c027"/><circle cx="21.1" cy="35.9" r="6.27" style="fill:#f1c129"/><circle cx="21.06" cy="35.81" r="6.15" style="fill:#f1c22a"/><circle cx="21.01" cy="35.71" r="6.03" style="fill:#f1c22b"/><circle cx="20.97" cy="35.62" r="5.91" style="fill:#f1c32c"/><circle cx="20.93" cy="35.53" r="5.79" style="fill:#f1c42d"/><circle cx="20.89" cy="35.44" r="5.67" style="fill:#f1c42e"/><circle cx="20.85" cy="35.35" r="5.55" style="fill:#f1c52f"/><circle cx="20.81" cy="35.26" r="5.43" style="fill:#f1c630"/><circle cx="20.77" cy="35.17" r="5.32" style="fill:#f1c631"/><circle cx="20.72" cy="35.08" r="5.2" style="fill:#f1c732"/><circle cx="20.68" cy="34.98" r="5.08" style="fill:#f1c833"/><circle cx="20.64" cy="34.89" r="4.96" style="fill:#f1c834"/><circle cx="20.6" cy="34.8" r="4.84" style="fill:#f1c935"/><circle cx="20.56" cy="34.71" r="4.72" style="fill:#f1ca36"/><circle cx="20.52" cy="34.62" r="4.6" style="fill:#f1ca37"/><circle cx="20.47" cy="34.53" r="4.48" style="fill:#f1cb38"/><circle cx="20.43" cy="34.44" r="4.36" style="fill:#f1cc39"/><circle cx="20.39" cy="34.35" r="4.24" style="fill:#f1cc3a"/><circle cx="20.35" cy="34.26" r="4.13" style="fill:#f1cd3b"/><circle cx="20.31" cy="34.16" r="4.01" style="fill:#f1ce3b"/><circle cx="20.27" cy="34.07" r="3.89" style="fill:#f1ce3c"/><circle cx="20.23" cy="33.98" r="3.77" style="fill:#f1cf3d"/><circle cx="20.18" cy="33.89" r="3.65" style="fill:#f1d03e"/><circle cx="20.14" cy="33.8" r="3.53" style="fill:#f1d03f"/><circle cx="20.1" cy="33.71" r="3.41" style="fill:#f0d140"/><circle cx="20.06" cy="33.62" r="3.29" style="fill:#f0d241"/><circle cx="20.02" cy="33.53" r="3.17" style="fill:#f0d242"/><circle cx="19.98" cy="33.43" r="3.06" style="fill:#f0d343"/><circle cx="19.94" cy="33.34" r="2.94" style="fill:#f0d344"/><circle cx="19.89" cy="33.25" r="2.82" style="fill:#f0d445"/><circle cx="19.85" cy="33.16" r="2.7" style="fill:#f0d546"/><circle cx="19.81" cy="33.07" r="2.58" style="fill:#f0d547"/><circle cx="19.77" cy="32.98" r="2.46" style="fill:#f0d648"/><circle cx="19.73" cy="32.89" r="2.34" style="fill:#f0d649"/><circle cx="19.69" cy="32.8" r="2.22" style="fill:#f0d74a"/><circle cx="19.64" cy="32.7" r="2.1" style="fill:#f0d84b"/><circle cx="19.6" cy="32.61" r="1.98" style="fill:#f0d84c"/><circle cx="19.56" cy="32.52" r="1.87" style="fill:#f0d94d"/><circle cx="19.52" cy="32.43" r="1.75" style="fill:#f0da4e"/><circle cx="19.48" cy="32.34" r="1.63" style="fill:#f0da4f"/><circle cx="19.44" cy="32.25" r="1.51" style="fill:#f0db50"/><circle cx="19.4" cy="32.16" r="1.39" style="fill:#f0dc50"/><circle cx="19.35" cy="32.07" r="1.27" style="fill:#f0dc51"/><circle cx="19.31" cy="31.97" r="1.15" style="fill:#f0dd52"/><circle cx="19.27" cy="31.88" r="1.03" style="fill:#f0de53"/><circle cx="19.23" cy="31.79" r="0.91" style="fill:#f0de54"/><circle cx="19.19" cy="31.7" r="0.8" style="fill:#f0df55"/></g></svg>