<?xml version="1.0" encoding="utf-8"?>
<!-- Generator: Adobe Illustrator 24.1.1, SVG Export Plug-In . SVG Version: 6.00 Build 0)  -->
<svg version="1.1" id="Layer_1" xmlns="http://www.w3.org/2000/svg" xmlns:xlink="http://www.w3.org/1999/xlink" x="0px" y="0px"
	 viewBox="0 0 14.2 9.5" style="enable-background:new 0 0 14.2 9.5;" xml:space="preserve">
<style type="text/css">
	.st0{fill:#DADADA;}
	.st1{fill:#FFFFFF;}
</style>
<g id="Layer_2_1_">
	<g id="Layer_1-2">
		<g id="cow">
			<g id="Path_37">
				<path class="st0" d="M13.9,5c-0.1,0-0.2-0.1-0.2-0.2c-0.1-1.6-0.3-2.6-0.7-2.9c-0.2-0.1-0.4-0.2-0.6-0.1l0,0
					c-0.1,0-0.2-0.1-0.2-0.2c0-0.1,0.1-0.2,0.2-0.2c0,0,0,0,0,0l0,0c0.4-0.1,0.7,0,1,0.2C13.8,2,14.1,3,14.1,4.8
					C14.1,4.9,14,5,13.9,5C13.9,5,13.9,5,13.9,5L13.9,5L13.9,5z"/>
			</g>
			<g id="Path_38">
				<path class="st0" d="M5.4,5.8c0,0.4-0.2,0.8-0.5,1.1C4.8,7.4,4.4,9.5,4.4,9.5H3.7c0.1-1.3,0.1-2.6-0.1-3.9
					c0.3,0,0.6-0.2,0.7-0.5L5.4,5.8z"/>
			</g>
			<g id="Path_39">
				<path class="st0" d="M11.1,6.4c-0.1,1.2-0.4,3.2-0.4,3.2H9.8l0.3-2.8C9.5,6.4,9,5.9,8.8,5.3c0.6,0,1.1-0.1,1.7-0.3
					C10.5,5.5,10.8,6,11.1,6.4z"/>
			</g>
			<g id="Path_40">
				<path class="st0" d="M12.8,5.7c-0.1,1.3-0.2,2.5-0.4,3.8h-0.9l0.3-2.8c-0.6-0.2-1-0.7-1.1-1.3c-0.6,0.3-1.3,0.4-2,0.4
					c-0.6,0-1.1,0-1.6,0H6.2C6.3,6,6.5,6.2,6.6,6.4C6.5,7.6,6.2,9.5,6.2,9.5H5.3c0,0,0-1.2-0.1-2.9C4.6,6.4,4,6,3.6,5.6
					C3.4,5.3,3.2,5.1,3,4.8l0,0C2.6,4.4,2.2,4,2.2,4l0.7-2.5c0.8-0.8,3-0.7,4.4-0.7H8c1.2,0,2.2-0.2,2.9-0.2c0.4,0,0.9,0,1.3,0.2
					c0.5,0.3,0.9,1,0.5,2.5C12.6,4.1,12.6,4.9,12.8,5.7L12.8,5.7z"/>
			</g>
			<g id="Group_16">
				<g id="Path_43">
					<path class="st0" d="M4.1,1c0.4-0.2,1-0.2,1.4,0.1C5.2,1.5,4.7,1.8,4.2,1.7L4.1,1z"/>
					<path class="st1" d="M4.5,1.7H4.2l0,0L4.1,1l0,0c0.5-0.2,1-0.2,1.4,0.1h0.1l0,0C5.3,1.5,4.9,1.7,4.5,1.7z M4.3,1.6
						c0.4,0.1,0.9-0.1,1.2-0.5C5,0.9,4.6,0.9,4.2,1.1L4.3,1.6z"/>
				</g>
				<g id="Path_44">
					<path class="st0" d="M1.4,1C0.9,0.8,0.4,0.8,0,1.1c0.3,0.4,0.8,0.7,1.3,0.6L1.4,1z"/>
				</g>
				<g id="Path_45">
					<path class="st0" d="M4.3,2C4.1,4.1,3.4,4.2,2.8,4.2S1.4,4.1,1.1,2s1-2,1.6-2S4.6,0,4.3,2z"/>
				</g>
				<g id="Path_46">
					<path class="st0" d="M12.2,0.8c-0.8,0.6-1.6,1.3-2.2,2.2c-0.6,0.5-1.5,0.4-2-0.2C7.8,2.5,7.7,2.3,7.7,2c0-0.4-0.1-0.9-0.3-1.2
						H8c1.2,0,2.3-0.2,2.9-0.2C11.4,0.5,11.8,0.6,12.2,0.8L12.2,0.8z"/>
				</g>
				<g id="Path_47">
					<path class="st0" d="M8.6,5.8c-0.6,0-1.1,0-1.6,0C6.2,5.3,5.7,5,5.5,4.6s0.7-1,1.3-1S7.7,3.8,8.2,5C8.3,5.3,8.4,5.6,8.6,5.8z"
						/>
				</g>
				<g id="Path_48">
					<path class="st0" d="M14.2,5.4c0,0.3-0.1,0.6-0.4,0.9c-0.2-0.3-0.3-0.6-0.4-0.9c0-0.5,0.2-0.7,0.4-0.7S14.2,4.9,14.2,5.4z"/>
				</g>
			</g>
		</g>
	</g>
</g>
</svg>
