<?xml version="1.0" encoding="utf-8"?>
<!-- Generator: Adobe Illustrator 24.1.1, SVG Export Plug-In . SVG Version: 6.00 Build 0)  -->
<svg version="1.1" id="Layer_1" xmlns="http://www.w3.org/2000/svg" xmlns:xlink="http://www.w3.org/1999/xlink" x="0px" y="0px"
	 viewBox="0 0 42.7 51" style="enable-background:new 0 0 42.7 51;" xml:space="preserve">
<style type="text/css">
	.st0{fill:#F9F8FA;}
	.st1{fill:none;stroke:#F9F8FA;stroke-width:0.25;stroke-miterlimit:10;}
</style>
<g id="Layer_2_1_">
	<g id="Layer_1-2">
		<path class="st0" d="M23.8,44.1L23,44.6c0.1,0.3,0.2,0.5,0.3,0.8c0,0.1-0.2,0.3-0.4,0.3c-0.2,0-0.3-0.1-0.4-0.3
			c-0.1-0.2-0.2-0.4-0.3-0.7c-0.1-0.2-0.1-0.5-0.3-0.9c-0.2,0.5-0.8,0.7-1.3,0.5c-0.1,0-0.2-0.1-0.2-0.1l0.2-0.6l0.6,0.1l0.2-0.5
			l-1.8-0.7c-0.2,0.3-0.4,0.5-0.7,0.7c-0.1,0.1-0.4,0.1-0.5,0c-0.1-0.2-0.2-0.5-0.2-0.8l-0.4-0.3l0.8-0.9l-0.8-0.4
			c0,0.4,0,0.7-0.1,0.9s-0.4,0-0.8,0c0.1-0.4,0.1-0.8,0.2-1.3c-0.8-0.3-1.3-1.2-1-2.1c0,0,0-0.1,0-0.1l-0.1,0.2
			c-0.1,0.2-0.3,0.5-0.4,0.7c-0.1,0-0.4-0.1-0.4-0.2c-0.1-0.3-0.1-0.6,0-0.8c0.1-0.3,0.2-0.6,0.4-0.9l-1.1-0.7
			c-0.7,0.3-0.9,0.9-0.3,1.4l0,0c0,0.2,0,0.5,0,0.7c-0.1,0.3,0,0.4,0.3,0.6c0.6,0.4,0.1,0.9,0.1,1.4s-0.4,0.3-0.8,0.2
			s-0.7,0-0.8,0.9l0.7-0.4c0.1,0.1,0.2,0.3,0.2,0.3c-0.2,0.2-0.4,0.3-0.6,0.4c0.1,0.5,0,0.6-1,1c0.2,0,0.5,0.1,0.6,0
			c0.5-0.4,0.9-0.5,1.2,0.2c0,0.1,0.2,0.1,0.3,0.2c0-0.1,0-0.2,0-0.2c-0.2-0.3-0.6-0.5-0.1-0.9c0.4-0.3,0.9-0.3,1.3-0.1
			c0.4,0.3,0.9,0.6,1.3,0.9c0.7,0.6,1.1,1.4,1.2,2.3c0,0.3-0.5,0.7-0.9,0.9s-0.7-0.1-1-0.3c-0.1,0,0-0.4,0-0.5l-1.2-0.3
			c0.2,0.3,0.3,0.4,0.3,0.5c0,0.2,0,0.4-0.1,0.5c-0.1,0.1-0.4,0.1-0.5,0c-0.6-0.2-1.1-0.5-1-1l-1.6,1c-0.2,0.1-0.4,0.2-0.5,0.3
			c-0.3,0.3-0.7,0.3-1,0c-0.1-0.1-0.2-0.2-0.2-0.4c-0.1-0.4-0.4-0.6-0.8-0.6c-0.5-0.1-0.9-0.1-1.4-0.3c-0.6-0.1-1.2-0.2-1.8-0.2
			c-0.9,0.1-1.1-0.1-1.2-1C5,43,5.1,41.9,5.5,40.9c0.1-0.3-0.2-0.8-0.2-1.2c-0.1-0.8-0.1-1.7-0.2-2.5c0-0.5-0.3-0.8-0.8-0.8
			c-0.3-0.1-0.7-0.2-1-0.4c-0.2-0.1-0.4-0.5-0.7,0c-0.3-0.1-0.7-0.3-1-0.4S1.1,35.1,0.8,35c-0.3-0.1-0.5-0.5-0.4-0.8
			c0-0.1,0-0.1,0.1-0.2c0.2-0.6,0.4-1.1,0.6-1.7c0.4-1-0.1-2-0.2-3c0-0.5,0-0.9,0-1.4c0-0.2,0.3-0.3,0.4-0.5
			c0.1,0.1,0.4,0.3,0.4,0.5c0.1,0.5-0.1,1.1,0.7,1.2c0.1,0,0.2,0.4,0.2,0.6C3.3,29.3,3.3,29,3,28.3c-0.2-0.3-0.3-0.7-0.4-1.1
			c-0.1-0.6-0.3-1.1-1-1.2c-0.3,0.4,0,1.2-1,1.3c0-0.7,0-1.3,0.1-2c0.6-2,0.3-4,0.4-5.9c0-0.8,0.2-1.7,0.4-2.4
			c0.3-0.7,0.5-1.4,0.8-2c0.2-0.6,0.4-1.2,0.7-1.8c0.5-0.8,1.2-1.4,1.8-2.2c0.2-0.2,0.3-0.4,0.5-0.6c0.2-0.4,0.5-0.7,1-0.4
			c0.8,0.4,1.8,0.2,2.4-0.4c0.4-0.1,0.8-0.1,1.3,0c1.6,0.5,3.3-0.1,4.1-1.6c0.5-0.8,0.9-1.8,1.4-2.7c0.1-0.2,0.3-0.4,0.5-0.6
			c0.3-0.5,0.6-0.9,0.9-1.4C17,3,17.1,2.8,17.5,2.9c1.4,0.2,2.7-0.4,3.6-1.5c0.3-0.3,0.7-0.6,1.1-0.8c0.4-0.3,0.8-0.3,1.3,0.2
			c-0.2,0.2-0.4,0.4-0.6,0.6c-0.4,0.3-0.7,0.7-1,1.1C21.5,3,21.5,3.8,22,4.2c0.4,0.5,0.6,1.1,0.5,1.7c0,0.8,0,1.6,0.1,2.4
			c0,0.3-0.1,0.6-0.4,0.9c-0.8,0.5-0.9,1.3-1.1,2.1c-0.3,1,0,1.1-1.1,1.1c0.1,0.3,0.2,0.6,0.2,0.8c-0.4,1.3,0.1,2.3,0.6,3.5
			c-0.8-0.1-1.6-0.1-2.4,0c-0.7,0.3-1.4,0.6-2,1.2c0.5-0.1,1-0.3,1.5-0.6c0.7-0.4,1.4-0.5,2.2-0.4c0.3,0.1,0.5,0.3,0.6,0.6
			c0,0.3-0.1,0.5-0.3,0.7c-0.5,0.3-0.8,0.9-0.8,1.5c0,0.7-0.4,0.8-0.9,0.8c-0.2,0-0.5,0-0.7,0v0.2l2.3-0.1c-0.5-0.5-0.6-1.4,0-1.9
			c0.1-0.1,0.3-0.2,0.4-0.3c0.1,0,0.4,0.1,0.5,0.3c0.4,1.1,1.2,1,2,0.9c0.6-0.1,1.3-0.4,1.7-0.1c0.5,0.4,1,0.9,1.4,1.4
			c-0.1,0.5-0.2,1-0.4,1.4c-0.2,0.6-0.6,1.2-1,1.6c-0.3,0.4-0.5,0.8-0.6,1.3c0,0.3-0.1,0.7-0.5,0.6c-0.3-0.1-0.4-0.5-0.5-0.8
			s0-0.4,0.1-0.6l-0.3-0.1c-0.1,0.2-0.2,0.5-0.3,0.7c0,0.1,0.1,0.3,0.1,0.4c-0.1,0.4-0.2,0.7-0.3,1.1c-0.2,0-0.3-0.1-0.5-0.1
			c-0.4-0.3-0.5-0.6-0.3-1c-0.4-0.1-0.8-0.2-1.2-0.3c0,0,0-0.4,0-0.5c0.3-0.1,0.7-0.2,1-0.3c0-0.1,0-0.4,0-0.6l-0.4-0.3
			c-0.5,0.6-1.1,1.2-1.5,1.8c-0.1,0.2,0,0.7,0.1,1.1c0.5,1,0.4,2.3-0.3,3.2c-0.2,0.3,0,0.9-0.6,0.8c-0.3,0-0.6,0.1-0.8,0.3
			c-0.2,0.2-0.3,0.4-0.3,0.6c0.4,0.1,0.6,0.2,0.2,0.6c-0.3,0.4-0.7,0.7-1.1,0.9l-1.7,0.3c0,0.4,0.1,0.6,0.6,0.3c0.1,0,0.4,0,0.4,0.1
			c0,0.2,0,0.3-0.1,0.5c-0.3,0.3-0.6,0.6-0.9,0.9c0.5-0.2,0.9-0.4,1.2,0.2c0,0.1,0.4,0.1,0.5,0c0.3-0.1,0.5-0.4,0.8-0.5
			c0.5-0.3,1.1-0.6,1.7-0.8c0.2-0.1,0.3,0,0.5,0.1c0.2,0.1,0.3,0.2,0.3-0.1c0.2-0.1,0.4-0.1,0.5,0c0.4,0.3,0.7,0.5,1,0.8
			c0.2-0.1,0.4-0.2,0.6-0.3c0.2-0.3,0.4-0.5,0.6-0.8l1,1.9l0.5-0.2c0.3,0.4,0.3,0.4-0.2,0.7c-0.3,0.2-0.5,0.5-0.7,0.8
			c0.4,0.4,0.7,0.8,1,1.2c0.3,0.4,0.8,0.8,0.4,1.5l-0.5-0.2c0.4,1.7,0.4,2.3-0.6,3.5l0.5,0.2C24.2,43.2,23.9,43.6,23.8,44.1
			L23.8,44.1z M10.3,15.8c0,0.1,0,0.2,0,0.3c0,0.5,0.1,1-0.5,1.5c-0.3,0.2-0.9,0.8,0,1.4c0-0.4,0-0.7,0.1-1c0-0.1,0.2-0.3,0.2-0.3
			c0.4,0.1,0.7,0.2,1.1,0.3c0.1,0.1,0.1,0.5,0.1,0.7c0,0.1-0.1,0.2-0.1,0.3c0.7,0.7,0.9,0.8,1.1,0.1h-0.6c0-0.3,0-0.6,0-0.8
			s0-0.8,0-1.1l-0.9,0.1l-0.1,0l-0.2-0.1l0.4-1.2L10.3,15.8c0.1-0.4,0.2-0.8,0.3-1.1c0.1-0.2,0.1-0.4,0-0.5c-0.2-0.3-0.1-0.8,0.2-1
			c0.3-0.3,0.6-0.6,0.9-0.8l-1.1-0.6c-0.1-0.1-0.3-0.1-0.4-0.1c-0.7,0.2-1.3,0.5-1.7,0.6c0,0.7,0,1.2,0,1.7c0,0.1-0.3,0.1-0.4,0.2
			s-0.4,0.3-0.3,0.3c0.1,0.4,0.2,0.7,0.4,1.1l0.6-0.4l-0.3-0.6l1.1-0.5c0,0-0.1-0.1,0-0.2c0-0.2,0.1-0.4,0.2-0.6
			c0.1,0,0.3,0,0.4,0.1c0,0.2,0,0.5-0.1,0.7c-0.1,0.1-0.1,0.2-0.2,0.3c-0.1,0.3-0.2,0.6-0.3,0.8L10.3,15.8z M2.7,16
			c-0.1,0.4-0.2,0.9-0.4,1.3c0,0.1,0,0.3,0,0.4c0.5,0.8,1.6,0.7,2.2,1.3c0,0,0.1-0.1,0.1-0.1h0.7l0.1,0.2l0.2-0.6l0.7-0.1l-0.7-0.7
			c-0.2,0.8-0.8,1.1-1.1,0.6C3.9,17.6,3.4,16.8,2.7,16L2.7,16z M16.1,11.6c-0.4-0.4-1-0.5-1.5-0.2c-0.4,0.2-0.8,0.3-1.1,0.3
			c-0.3,0.1-0.7,0.1-1,0.2V12c0.4,0,0.9-0.1,1.2,0s0.2,0.7,0.3,1C14.7,12.7,14.6,11.2,16.1,11.6L16.1,11.6z M7.6,16.4l-1.5,0.9
			L6.4,18c0.3-0.8,1.1-1.2,1.9-0.9L7.6,16.4z M5.3,19.9C5.5,20,5.7,20.1,6,20.2c0.2,0.1,0.4,0.1,0.6,0c0.2-0.1,0.1-1.3-0.2-1.5
			C6.2,19.5,6.2,19.5,5.3,19.9L5.3,19.9z M19.5,12.6l0.1-0.2c-0.8-0.2-1-1.6-2.1-1.3L19.5,12.6z M7.5,12.9c-0.3,0.4-1.2-0.3-1.3,0.6
			C6.7,13.4,7.3,13.8,7.5,12.9L7.5,12.9z M22.5,35.9c0-0.1-0.1-0.3-0.1-0.4c-0.1-0.1-0.1-0.2-0.2-0.3c-0.1,0.1-0.2,0.2-0.2,0.3
			c-0.1,0.3-0.3,0.5-0.4,0.8c0,0.1-0.1,0.3-0.1,0.4L22.5,35.9z M18.7,30.2c-0.8-0.6-1.3,0.1-1.9,0.1C17.5,30.9,18,30.2,18.7,30.2z
			 M5.7,14.5c-1.2,0.9-1.2,0.9-1,1.1l1.1-0.7L5.7,14.5z"/>
		<path class="st0" d="M35.9,44c-0.2,0-0.3,0-0.5,0c-0.9-0.6-2.1-0.6-3-1.1c-0.2-0.1-0.3-0.4-0.5-0.6c0.3,0,0.5,0,0.8,0
			c0.1,0,0.2,0.1,0.5,0.2c-0.7-0.7-0.1-0.9,0.1-1.1c-0.3-0.4-0.5-0.7-0.8-1.1l-0.1,0.1c0.1,0.3,0.2,0.5,0.3,0.8l-0.1,0.1l-1.8-0.9
			l-0.4,0.7l-0.8-0.4l-1.1-0.4l0,0c0-0.6-0.3-1.1-0.8-1.4c-0.1,0-0.1-0.3-0.2-0.5h-0.5c-0.3-1,0.6-0.7,0.9-1
			c-0.1-0.6-0.2-1.1-0.3-1.5c-0.3,0-0.6-0.1-0.9-0.2c-0.1-0.2-0.1-0.4,0-0.5c0.1-0.1,0.4-0.1,0.8-0.3c-0.2-0.3-0.4-0.6-0.6-0.9
			c-0.3-0.2-0.6-0.3-0.9-0.4c-0.2-0.1-0.5-0.3-0.7-0.5l0.7-0.4c-0.2-0.1-0.3-0.1-0.5-0.2c-0.4,0-0.5-0.3-0.4-0.5s0.4-0.3,0.7-0.3
			s0.4,0.1,0.6,0.2c0.2,0.1,0.3,0.1,0.4,0.1c0.5-0.5,1-0.2,1.5-0.2c0.4,0,0.7-0.2,1-0.4c0.1,0,0-0.5-0.1-0.6s0-0.4,0.3-0.5
			c0.5-0.1,1.2,0,1.2-0.7s-0.8-0.5-1.2-0.6c-0.4-0.2-0.8-0.5-1.1-0.9c-0.1-0.1,0-0.4,0.1-0.5c0.2-0.1,0.4-0.1,0.5,0
			c0.6,0.6,1.5,0.8,2.3,0.6c0.1,0,0.3,0.2,0.4,0.2c0.2,0,0.4,0,0.6,0c0.3,0,0.7-0.2,0.9-0.1c0.4,0.3,0.1,0.7-0.1,1s-0.5,0.2-0.8,0.3
			c0.1,0.3,0.4,0.7,0.3,1s-0.6,0.5-0.9,0.7l0.1,0.2l1.8-0.8l0.3,0.4c0.4-0.1,0.6-0.5,0.5-0.9c0-0.1-0.1-0.2-0.1-0.2
			c-0.1-0.4-0.2-0.7-0.3-1.1c0.4,0.2,0.9,0.3,1.1,0.5c0.3,0.5,0.4,1.1,0.6,1.7v1.1c-0.6,0-1,0.4-1,1c0,0.1,0,0.1,0,0.2
			c0.1-0.2,0.3-0.3,0.4-0.5l0.4,0.3l0.3,0.3c0-0.2,0.1-0.5,0.2-0.7c0.3-0.6,0.2-1.2-0.3-1.6c0.3-1-0.2-1.7-0.5-2.6L34,28.9
			c-0.6-0.4-0.6-0.7-0.1-1.1c0.9-0.6,1.9-1.2,2.8-1.9c0.4-0.4,1.1-0.3,1.5,0.1c0.3,0.2,0.6,0.3,1,0.3c0.5,0.1,1,0.3,1.3,0.7
			c0.3,0.2,0.1,0.6-0.2,0.9c-0.6,0.5-0.5,1.1-0.3,1.8s0.2,1.1,0.3,1.6s0.3,1.3,0.6,1.9c0.2,0.4,0.6,0.8,0.2,1.3
			c-0.3,0.5-0.9,0.6-1.4,0.3c-0.1,0-0.1-0.1-0.2-0.1c0.1-0.3,0.2-0.7,0.3-1.2c-0.7,0.5-1.5,1-2.1,1.4c-0.5,0.3-0.8,0.9-0.6,1.5
			c0.1,0.5,0.6,0.6,1.1,0.7c0.2,0.1,0.5,0.1,0.7,0.3c0.7,0.3,0.9,1.1,0.6,1.7c0,0,0,0,0,0l0,0c-0.2,0.4-0.8,0.6-1.2,0.8
			c-0.2,0.1-0.5,0-0.8,0.1c-0.6,0.2-0.6,0.2-0.9,1.2l0.7,1l-0.8,0.2l0.4,0.5l0.1,0.3c-0.1,0.2-0.2,0.4-0.3,0.5
			c-0.2,0.2-0.5,0.3-0.7,0.4L35.9,44z M33.2,33.1l0.2,0.1l0.7-1.5L34,31.6c-0.4,0.8-0.7,0.3-1,0.1l-0.6,0.6l1.1,0.1
			C33.3,32.7,33.3,32.9,33.2,33.1z"/>
		<path class="st0" d="M36.9,43.1c0-0.1-0.1-0.2-0.1-0.3c0-0.3,0.1-0.5,0.4-0.4s0.8,0.3,1.1,0.4c0.3,0.1,0.7,0.1,1,0.1
			c0.5,0,1,0.2,1.2,0.8c0.1,0.4,0,0.7-0.5,0.7c-0.3,0-0.6-0.1-0.9-0.1c-0.5-0.1-1.1,0.1-1.4,0.6c-0.2,0.3-0.5,0.6-0.8,0.8
			c0.1,0.3,0.2,0.5-0.2,1c-0.8,0.8-1.7,1.7-1.1,3.1c0.1,0.3,0.1,0.6,0,0.9c-0.7,0.1-1-0.2-1-0.8s-0.1-1.6-0.2-2.4
			c0-0.1-0.1-0.2-0.3-0.2c0.1,0.5,0.1,1,0.1,1.5c0,0.2-0.3,0.4-0.5,0.5c-0.1,0-0.3,0-0.4,0c-0.9-0.2-1.9,0-2.6,0.5
			c-0.3,0.1-0.6,0-0.9-0.2c-0.8-1-1.9-1.6-3.2-1.9c-0.8-0.2-0.8-0.6-0.4-1.5l1,0.3l0.2-0.3c-0.2-0.1-0.4-0.3-0.6-0.5
			c-0.1-0.2-0.4-0.5-0.3-0.7c0.1-0.4,0.3-0.6,0.7-0.7c0.7-0.3,1.5-0.3,2.2,0.1c0.1-0.1,0.2-0.4,0.3-0.4c0.4-0.2,0.9-0.4,1.3-0.5
			c0.2,0,0.5,0,0.6,0.2c0.1,0.2,0.1,0.4-0.1,0.6c-0.1,0.1-0.4,0.1-0.5,0.2c-0.2,0-0.4,0.1-0.6,0.2l-0.9,0.4l1.6,1.2
			c0.4-0.3,0.5-0.4,0.8-0.5H32c0.3-1.2,0.8-0.4,1.2,0c0-0.6-1-1-0.3-1.6c0.3-0.3,1.3,0.1,1.5,0.4l1.4-0.5l0,0c0.2,0,0.4,0.1,0.6,0.1
			c0.5-0.1,1-0.3,1.4-0.5l-0.5-0.6L36.9,43.1z"/>
		<path class="st0" d="M35.8,17.8c0.4,0.4,0.7,0.7,1,1s0.7,0.5,1,0.7c0.1,0.1,0.3,0.1,0.4,0.2c0.3,0.5,0.8,0.9,1.3,1
			c0.2,0.1,0.2,0.9,0.2,1.3c0,0.4-0.1,0.7-0.3,1c-0.1,0.2-0.3,0.4-0.5,0.4c-0.4,0-0.8-0.1-1.2-0.2c-0.2-0.1-0.4-0.2-0.6-0.3
			c-2.5-0.9-2-0.9-2-3.1C35.3,19.2,35.5,18.5,35.8,17.8z"/>
		<path class="st0" d="M23.8,44.1c0.6-0.4,1.1-1.1,1.2-1.9c0-0.2,0.1-0.4,0.2-0.6c0.2-0.2,0.4-0.5,0.7-0.7c0.1,0.3,0.4,0.7,0.3,1
			c-0.2,0.8-0.5,1.6-0.8,2.3c-0.4,1.1-0.7,2.2-1,3.3c-0.1,0.5-0.3,0.9-0.8,0.8s-0.4-0.6-0.5-0.9c-0.4-1,0.3-1.4,0.9-2L23.5,45
			L23.8,44.1L23.8,44.1z"/>
		<path class="st0" d="M23.6,29.9c-0.1,0.5-0.2,0.9-0.2,1.4c0,0.4-0.1,0.6-0.6,0.6s-0.9,0-0.9-0.5s-0.2-1.1,0.4-1.5
			c0-0.2,0-0.4-0.1-0.6c-0.4-0.4-0.5-1-0.1-1.5c0.3-0.2,0.5-0.1,0.7,0.3c0.2,0.3,0.4,0.7,0.6,1c0.2,0.3,0.3,0.6,0.4,0.9L23.6,29.9z"
			/>
		<path class="st0" d="M18.9,43.8c0.7,0.4,1.4,0.8,2,1.2c0.1,0.1,0.4,0,0.5,0.1c0.3,0.2,0.5,0.4,0.7,0.7c0.1,0.1-0.2,0.4-0.3,0.6
			c0,0-0.1,0.1-0.2,0.1c-0.3,0.2-0.5,0.5-0.7,0.5c-0.3-0.1-0.6-0.4-0.9-0.7C19.5,45.6,18.8,45,18.9,43.8z"/>
		<path class="st0" d="M27.6,7c0.1,0.1,0.4,0.3,0.4,0.4c0,0.2-0.2,0.4-0.4,0.5c-0.5,0.3-0.8,0.8-0.8,1.3c0,0.1,0,0.4-0.1,0.4
			c-0.2,0.1-0.3,0.1-0.5,0c-0.1,0-0.1-0.3-0.1-0.4C26,9.1,25.9,9,25.8,8.9L25,8.2c0.3-0.3,0.5-0.6,0.9-0.8C26.5,7.2,27,7.1,27.6,7z"
			/>
		<path class="st0" d="M3.5,41.4c0.1-0.3,0.1-0.6,0.2-0.9s0-0.8,0.6-0.7s0.8,0.4,0.5,1c-0.1,0.4-0.2,0.8-0.3,1.2
			c-0.1,0.2-0.4,0.3-0.6,0.4c-0.1-0.3-0.2-0.5-0.3-0.7C3.5,41.6,3.5,41.5,3.5,41.4L3.5,41.4z"/>
		<path class="st0" d="M2.6,35.9c0.2-0.5,0.4-0.1,0.7,0c0,0.1,0,0.2,0.1,0.2c0.9,0.4,0.5,1.3,0.8,1.9c-0.9,0.2-1.4-0.3-1.5-1.4
			C2.6,36.4,2.6,36.2,2.6,35.9z"/>
		<path class="st0" d="M30.1,16.5c0.6-0.2,1-0.3,1.5-0.4c0.2,0,0.4,0.1,0.5,0.1c-0.1,0.2-0.1,0.3-0.2,0.5s-0.1,0.1-0.1,0.1
			c-0.2,0.3-0.2,0.9-0.7,0.6S30.4,16.9,30.1,16.5z"/>
		<path class="st0" d="M26.7,29c0.7-0.1,1.4,0.2,1.7,0.8c0.1,0.2,0,0.4-0.1,0.5c-0.1,0.1-0.3,0.1-0.5,0C26.9,30,26.6,29.7,26.7,29z"
			/>
		<path class="st0" d="M28.5,40.4c-0.1,0.3-0.2,0.7-0.4,1c-0.1,0.2-0.4,0.2-0.6,0.2c-0.1-0.2-0.1-0.4-0.1-0.6c0-0.1,0.2-0.2,0.4-0.3
			c0-0.1-0.2-0.2-0.2-0.3c0-0.2,0.1-0.4,0.2-0.6c0.2,0.1,0.4,0.3,0.5,0.4C28.4,40.2,28.5,40.3,28.5,40.4L28.5,40.4z"/>
		<path class="st0" d="M41.3,33.4l0.6-0.7c0.2,0.2,0.3,0.4,0.5,0.7c0.1,0.3,0,0.7-0.5,0.6C41.7,33.9,41.5,33.7,41.3,33.4z"/>
		<path class="st0" d="M19.2,31.8c0.3-0.2,0.5-0.5,0.8-0.7c0.1-0.1,0.5,0.1,0.5,0.1c0,0.3,0,0.7-0.2,0.8c-0.3,0.1-0.7,0.1-1,0.1
			L19.2,31.8z"/>
		<path class="st0" d="M4.4,39.4C4.2,39.2,4,39,4,38.8c0-0.2,0.2-0.4,0.4-0.5s0.5,0.2,0.4,0.3c-0.1,0.3-0.2,0.5-0.3,0.8L4.4,39.4z"
			/>
		<path class="st0" d="M21.3,28c0.2,0.3,0.4,0.5,0.4,0.7s-0.3,0.3-0.5,0.5c-0.1-0.2-0.4-0.3-0.4-0.5S21,28.4,21.3,28z"/>
		<path class="st0" d="M14.3,38c0.1-0.2,0.2-0.3,0.3-0.4c0.1,0,0.3,0,0.4,0.1c0.1,0.1,0.1,0.3,0.1,0.5c-0.1,0.1-0.3,0.1-0.4,0.1
			S14.4,38.1,14.3,38L14.3,38z"/>
		<path class="st0" d="M19.3,33.2L19,33.9c-0.1-0.1-0.4-0.3-0.3-0.4c0.1-0.2,0.3-0.3,0.4-0.5L19.3,33.2z"/>
		<path class="st0" d="M19.6,12.4l-0.1,0.2"/>
		<path class="st0" d="M17.5,11.1"/>
		<rect x="33.4" y="17.3" class="st1" width="8.4" height="7.4"/>
	</g>
</g>
</svg>
