<svg xmlns="http://www.w3.org/2000/svg" viewBox="0 0 42.77 47.31"><g id="Layer_2" data-name="Layer 2"><g id="Layer_1-2" data-name="Layer 1"><g id="Lag_2" data-name="Lag 2"><g id="Lag_1-2" data-name="Lag 1-2"><path d="M33.5,42.1v3.55a1.67,1.67,0,0,1-1.66,1.66H1.66A1.67,1.67,0,0,1,0,45.65V8.42A1.66,1.66,0,0,1,1.66,6.76h6V26.35h-3a.37.37,0,0,0-.38.37h0v.62a.38.38,0,0,0,.38.38h3v3.41h-3a.38.38,0,0,0-.38.36v.62a.38.38,0,0,0,.38.38h3V35.9h-3a.38.38,0,0,0-.38.37h0v.63a.38.38,0,0,0,.38.37h3v3.17A1.67,1.67,0,0,0,9.3,42.1Z" style="fill:#faf9fb"/><path d="M29.71,12.83V1.32L42.17,13.78H30.66A1,1,0,0,1,29.71,12.83Z" style="fill:#faf9fb"/><path d="M42.35,15.23H30.66a2.4,2.4,0,0,1-2.41-2.4V1h0V0H10.91A1.65,1.65,0,0,0,9.26,1.65V38.9a1.65,1.65,0,0,0,1.65,1.65H41.12a1.66,1.66,0,0,0,1.65-1.65V15.2A3,3,0,0,1,42.35,15.23ZM27.87,31.45a.38.38,0,0,1-.38.37H13.41a.38.38,0,0,1-.37-.37h0v-.63a.38.38,0,0,1,.37-.37H27.49a.38.38,0,0,1,.38.37h0Zm2.89-5.54a.38.38,0,0,1-.38.37h-17a.38.38,0,0,1-.37-.37h0v-.62a.38.38,0,0,1,.37-.38h17a.38.38,0,0,1,.38.38ZM35,20.37a.38.38,0,0,1-.38.37H13.41a.38.38,0,0,1-.37-.37h0v-.61a.38.38,0,0,1,.37-.38h21.2a.38.38,0,0,1,.38.37h0Z" style="fill:#faf9fb"/></g></g></g></g></svg>