<svg xmlns="http://www.w3.org/2000/svg" viewBox="0 0 45.26 46.16"><g id="Layer_2" data-name="Layer 2"><g id="Layer_1-2" data-name="Layer 1"><path d="M45.26,9.19A9.23,9.23,0,1,0,31,16.9l-3.64,7.47L32,22.63l1.37,4.69,2.73-5.56,2.6,5.2,1.63-4.35,4.54,1.63-3.39-7.63A9.12,9.12,0,0,0,45.26,9.19ZM35.12,7.62l1-2.09,1,2.09,2.3.33L37.81,9.58l.4,2.29-2.06-1.08-2.06,1.08.39-2.29L32.81,8Zm-1.54,17-1-3.26L29.4,22.53l2.51-5.13a9.18,9.18,0,0,0,4.12,1l.59,0ZM43,22.51l-3.27-1.18-1.17,3.13-1.87-3.75,1.16-2.52a8.88,8.88,0,0,0,2.77-1Z" style="fill:#f9f8fa"/><path d="M34.58,42.76v.47c0,.38,0,.77,0,1.15a1.65,1.65,0,0,1-1.77,1.78H2.23C.51,46.16,0,45.66,0,44V13.57c0-1.4.54-2,1.92-2,.7,0,1.41,0,2.12,0a1.6,1.6,0,0,1,1.72,1.74c0,.52,0,1,0,1.55V39.2c0,1.12,0,1.17,1.15,1.17H32.18C34.11,40.37,34.58,40.84,34.58,42.76Z" style="fill:#f9f8fa"/><path d="M34.34,34.35c0,1.18,0,2.44,0,3.68-.07,1.52-1.11,1.77-2.76,1.77H30.9a1.8,1.8,0,0,1-2-1.85c0-.42,0-.84,0-1.25v-.81c-.07-1.42,0-2.3.49-2.81s1.33-.5,2.65-.44l.86,0A1.56,1.56,0,0,1,34.34,34.35Z" style="fill:#f9f8fa"/><path d="M27.5,34.48q0,1.64,0,3.27a1.83,1.83,0,0,1-2,2H24.44a2.38,2.38,0,0,1-1.82-.52c-.47-.48-.65-1.29-.6-2.79.06-1.71.05-3.45,0-5.14,0-.85,0-1.69,0-2.54,0-1.68.58-2.25,2.26-2.29,1.31,0,2.14,0,2.66.49s.54,1.34.54,2.67Z" style="fill:#f9f8fa"/><path d="M19.9,27.69v3.64q0,3,0,6.11c0,1.66-.51,2.17-2.2,2.17H16.35a1.67,1.67,0,0,1-1.74-1.84V21.33a1.62,1.62,0,0,1,1.78-1.8c.17,0,.36,0,.53,0h.58a2.39,2.39,0,0,1,1.84.39,2.72,2.72,0,0,1,.56,2Z" style="fill:#f9f8fa"/><path d="M12.09,13.83c.44.43.58,1.14.56,2.82,0,2.31,0,4.61,0,6.91,0,1,0,2,0,3V37.4c0,1.75-.63,2.37-2.4,2.37H9.58c-1.77,0-2.39-.63-2.39-2.38V15.7a2.38,2.38,0,0,1,.47-1.77,2.35,2.35,0,0,1,1.79-.47l.8,0C11,13.42,11.65,13.4,12.09,13.83Z" style="fill:#f9f8fa"/></g></g></svg>