<svg xmlns="http://www.w3.org/2000/svg" viewBox="0 0 317.01 376.79"><defs><style>.cls-1,.cls-5{fill:#fff;}.cls-1,.cls-6{stroke:#000;stroke-width:0.5px;}.cls-2{fill:#323232;}.cls-3{fill:#535353;}.cls-4{fill:#6e6e6e;}.cls-6{fill:none;}</style></defs><g id="Layer_2" data-name="Layer 2"><g id="Layer_1-2" data-name="Layer 1"><path class="cls-1" d="M148.26,213.42s-5.9.3-14.5-2.8-11.6-5.6-20.1-6.5-14.3,3.1-23.3-1.3-15-7.7-24.3-8.2-14.3-.9-21.3,1.4-22.2,3.8-27.2,0-7.5-3.6-7.5-3.6"/><path class="cls-2" d="M266.56,241.22c2-4,1.7-7.6-1.4-11.5,3.6,4.1,4.1,7.8,2,12.1-.7,1.4-.6,3.3-.9,5.2-1.8-1.3-3.6-2.8-5.7-4.4-1.1,1.5-2,2.8-3,4.2a7.57,7.57,0,0,1,.1-1.5c.8-1.1,1.5-2.1,2.4-3.3,2.1,1.6,4,3.1,5.7,4.4C266,244.52,265.76,242.62,266.56,241.22Z"/><path class="cls-2" d="M264.36,228.62v.2l-.1-.1a.35.35,0,0,1,.1-.2Z"/><path class="cls-2" d="M264.56,227.92a6.47,6.47,0,0,0,.4,1.3c0,.1,0,.2-.1.2-.2-.2-.3-.4-.5-.5v-.3A1.45,1.45,0,0,1,264.56,227.92Z"/><path class="cls-2" d="M264.76,229.42a.35.35,0,0,1,.1-.2v.1Z"/><path class="cls-2" d="M265,229.32v.3l-.1-.1Z"/><path class="cls-2" d="M300.46,324c1.7,4.1.6,6-3.8,6-2.1,0-4.2-.8-6.3-.9-4.1-.3-7.9.1-10.5,4.2-1.4,2.2-3.6,3.8-5.9,6.2.9,1.9,1.8,4-1.6,7.4-5.9,5.9-12.6,12.6-8.5,22.9.8,2,.1,4.6.1,6.8-5.4.8-7.3-1.1-7.5-6.1-.3-6.2-.9-12.3-1.4-18.5,0-.5-.7-1-1.4-1.4,1,3.8-2.2,7.6.2,11.5.2.4-2.4,2.8-4,3.9a3.28,3.28,0,0,1-2.9,0c-7.5-2.7-13.5.6-19.7,4.1-1.5.9-5.3.1-6.4-1.3-6.3-7.5-14.4-11.6-23.8-13.9-5.6-1.4-6.1-4.3-2.8-11.2,2.4.7,4.8,1.5,7.2,2.2l1.2-2.1a42.67,42.67,0,0,1-4.1-2.9c-5-4.9-3.6-8.1,3-11,5.8-2.5,10.8-2.6,16,.7.7-1,1.2-2.7,2.3-3.2a58.33,58.33,0,0,1,10-4.1,5.94,5.94,0,0,1,4.8,1.3c.7.8.4,3.4-.4,4.5-.7.9-2.7.9-4.1,1.4-1.6.5-3.2.9-4.8,1.5-1.8.7-3.6,1.5-6.4,2.6,4.2,3.3,8.6,6.7,11.6,9,2.6-1.9,4.1-3,5.5-4,.2-.1.8,0,.8-.1,2.3-8.7,5.7-2.7,9.1-.4.3-4.3-8-7.6-1.6-11.7,3.5-2.3,9.3.1,11.2,3.3,3.4-1.2,10-3.3,10.8-3.6h.1c1.5.2,3,1.1,4.4.7,3.8-1,7.6-2.5,10.7-3.6-.6-.8-1.9-2.6-3.5-4.6-1,.1-2.4.3-3.7.5a4.35,4.35,0,0,0-.4-.7l-.6-1.2c.9-1,2-2.9,2.7-2.8,3,.6,5.8,1.9,8.7,2.6a55.37,55.37,0,0,0,7.1,1.2C295.36,319.52,298.86,319.92,300.46,324Z"/><path class="cls-2" d="M260.06,215.82c-1.7-1.5-4.9-2.1-7.3-3.2.2-.1.4-.1.6-.2C256,213.42,258.86,214.12,260.06,215.82Z"/><path class="cls-2" d="M252.86,212.62h0c-.1,0-.1,0-.1-.1C252.76,212.62,252.76,212.62,252.86,212.62Z"/><path class="cls-2" d="M261.46,209.92c2.1,6.4,5.9,12.3,3.5,19.3a9.29,9.29,0,0,0-.4-1.3c1.9-6.4-1.4-12-3.4-17.9A.37.37,0,0,1,261.46,209.92Z"/><path class="cls-2" d="M256.86,246.22l.6-.9c0,.5-.1,1-.1,1.5,1.1-1.5,1.9-2.7,3-4.2,2.1,1.7,4,3.1,5.7,4.4.3-1.9.2-3.8.9-5.2,2.1-4.3,1.6-8-2-12.1,0-.1-.1-.1-.1-.2v-.4c2.5-7-1.4-12.9-3.5-19.3-.1,0-.2.1-.3.1-.1-.3-.2-.5-.3-.8-2.9.9-5.7,1.9-8.6,2.8a.1.1,0,0,1-.1-.1h0a11.81,11.81,0,0,1-2.8-2.3c-1.4-1.9-.6-3.8,2.5-5.9,6.9-4.6,13.9-9.1,20.7-13.8,4.1-2.9,7.9-2.6,11.4.5,2.2,1.9,4.3,2.2,7.3,2.4,3.5.2,7,2.9,9.9,5.3.8.7.1,4.9-1.3,6.2-4.6,4.3-3.7,9-2.4,14.1.9,3.4,1.2,7,2.1,10.5a157.33,157.33,0,0,0,4.3,15.3c1.2,3.3,4.4,6.3,1.3,9.9s-6.7,4.6-11.7,1.3c.5-2.4,1.1-5.3,1.9-9.2-6.1,4.3-11.8,8.3-17.3,12.4-3.3,2.4-4.7,6.3-3.2,9.7,1,2.3,4.4,3.8,7,5.3,1.8,1.1,4,1.3,5.9,2.2,4.7,2.2,7.1,7.8,4.5,13.5-1.3,2.9-5.8,4.5-9.1,6.2-1.6.8-3.9.4-5.8.8-5.2,1.1-6.2,5.1-6.6,9.1,1.6,2.4,3.1,4.6,4.9,7.4-2.6.6-3.8.9-5.9,1.4,1.2,1.5,2,2.5,2.9,3.5a17.38,17.38,0,0,0,1,1.9c-.8,1.3-1.4,2.9-2.5,3.9a44.6,44.6,0,0,1-5.2,3.1h-.1c-1.2-.1-2.6.3-3.4-.2-7-4.3-15.5-4.3-22.7-7.9-1.6-.8-2.5-2.8-3.7-4.2a54.64,54.64,0,0,1,5.6-.4c.7,0,1.5.6,3.6,1.5-4.9-4.9-.7-6.3,1.2-8-2.1-2.9-4-5.4-5.8-7.9a7,7,0,0,1-1,.8l2.1,5.7a7,7,0,0,0-.8,1c-4.8-2.4-9.5-4.9-13.6-7-1.1,2-2,3.6-2.9,5.3-1.9-1.1-3.9-2.2-5.6-3.1-2.7-1.1-5.2-2-7.6-3-.1-.2-.2-.3-.3-.5-.5-4.2-1.6-7.9-5.9-10-.8-.4-.9-2.3-1.4-3.8-.7-.1-2-.2-3.4-.3-2.4-6.9,4.3-5.4,6.9-7.6-.8-4.1-1.5-8-2-11-3.1-.7-5.3-.8-7-1.8-.6-.3-.6-3.4.1-4.1,1.1-1,3.1-1,5.3-1.5.6-2.8-.9-5.4-4.3-6.9-2.5-1.2-5.3-1.8-7.7-3.1-1.4-.8-2.3-2.3-3.5-3.5,1.4-.7,2.8-1.5,4.3-2.2a14.5,14.5,0,0,1,2.3-.5c-2.3-.7-4.1-.9-5.4-1.8s-2.3-2.5-3.4-3.8c1.7-1,3.5-2.7,5.2-2.7,2.1,0,4.2,1.6,6.2,1.3,3.3-.2,6.8-1.2,9.9-.4,4,1,7.1-.9,9.8-2.6,1-.6-.2-4.6-.5-7.8,1.9-.5,4.7-.8,7.1-1.9a7,7,0,0,0,3.6-4.2c.2-1.1-1.9-3.1-3.4-3.7-3.1-1.3-6.6-1.8-9.7-3.2a8.69,8.69,0,0,1-3.8-4.2c-.5-1-.2-3.3.6-3.9a4.38,4.38,0,0,1,4,.2c5.1,3.5,10.3,6.3,16.8,4.4.8-.2,2,1.1,3.1,1.3a17.76,17.76,0,0,0,4.6.2c2.2-.1,5.1-1.5,6.5-.6a2.89,2.89,0,0,1,1.1,1.1c1,1.7-.5,3.9-1.5,5.7a18.89,18.89,0,0,1-2.3,2.8c-1.5-.6-2.9-1.1-4.2-1.6,1.2,3.1,3.7,6.3,3.1,8.8-.5,2.3-4.3,3.8-6.7,5.7.2.4.5.8.7,1.2,4.3-1.9,8.5-3.9,13.4-6.1.3.4,1.4,1.7,2.5,3,4.2-2.3,4.4-5.2,2.2-9.2-1.3-2.4-1.4-5.4-2-8.1h0c.4.2.8.3,1.2.5-.2.1-.4.1-.6.2a.1.1,0,0,1-.1-.1l.1.1h.1c2.4,1.1,5.6,1.7,7.3,3.2a.1.1,0,0,0,.1.1c2.2,3.7,2.8,8.3,4.1,12.5,0,.1,0,.2-.1.2l.1.1v8.1C259,237.62,256.76,240.42,256.86,246.22Zm-4.9-12.6c-2.7,6.1-5,2.4-7.1.8-1.6,1.5-3.1,2.8-4.4,4.1,2.6.4,5.1.8,8.1,1.2-1.2,2.8-1.8,4.2-2.5,5.6.5.3,1,.7,1.5,1,1.8-3.7,3.6-7.4,5.5-11.1C252.66,234.62,252.36,234.12,252,233.62Z"/><path class="cls-2" d="M211.06,298.82c-.1,0-.1-.1-.2-.1v-.4C211,298.52,211.06,298.62,211.06,298.82Z"/><path class="cls-2" d="M210.86,298.72Z"/><path class="cls-2" d="M211.36,299.32c-.9,2.6-1.4,5.4-2.9,7.6-.7,1.1-3.1,1.3-4.7,1.8-.3-1.6-.9-3.2-.7-4.8.1-.9,1.6-1.5,2.6-2.4-.4-.7-1.4-1.7-1.3-2.5a25.72,25.72,0,0,1,1.5-4.7,38.07,38.07,0,0,1,4.1,2.9,10.63,10.63,0,0,1,.9,1.1v.4h-.1l.1.1v-.1c.1,0,.1.1.2.1a2.09,2.09,0,0,0,.4.6Z"/><path class="cls-2" d="M252.16,211.92a.1.1,0,0,1,.1.1.1.1,0,0,1-.1-.1Z"/><path class="cls-3" d="M123.86,224.32a5.67,5.67,0,0,0,1.3,1,2.19,2.19,0,0,1,.5.3,3.26,3.26,0,0,0,1.3.4,6.64,6.64,0,0,0,3.9-.5,6.12,6.12,0,0,0,1.2-.5c.6-.3,1.2-.5,1.8-.8a5,5,0,0,1,1.3-.4,9.25,9.25,0,0,1,2.9-.4c-3.6-2.5-6.4-1.7-9.1-.6-.4.2-.8.3-1.2.5a20.94,20.94,0,0,1-2.3.8,7,7,0,0,1-1.6.2Zm42.3,41.7c-.7-1.7-1.5-3.5-2.8-6.3-1.3,3.5-2,5.5-2.8,7.3a37.8,37.8,0,0,1-2.6,4.3c.3,0,.5.1.8.1C161.16,269.62,163.56,267.92,166.16,266Zm-49.8-17.4c.9-.4,2.2.5,3.4.8-.4,1.2-.4,2.7-1.1,3.4-2.1,2.1-4.6,4-6.7,6.4,3.4-1,6.6-3.1,8.8,1.7.3.6,2.7.8,3.7.2,6-3,11.7-6.5,17.8-9.4,1.7-.8,4.2-.1,6.9-.1,1.9-3.3,7.8-.7,11.9,5.8,1.9-.8,3.9-1.1,5.1-2.3,1.6-1.4,2.5-3.5,4.5-6.5,2.8,5.4,4.9,9.6,7.2,14,1.1-.5,2.4-1,3.7-1.5,2.6,3.5,2.4,3.1-1.1,5.1-2.1,1.1-3.6,3.5-5.7,5.7,4.4,5.4,11.4,10.3,11.4,19.9-2.1-.6-3.4-.9-5.1-1.4,3.3,9.7,3.2,18.7-4.5,26.3,1.6.5,3.1,1,4.1,1.3-1.7,3.4-3.2,6.3-4.8,9.3h0c-1.1.7-2.1,1.3-3.1,2-.5.3-1,.6-1.4.9a12.49,12.49,0,0,0-1.2.8c.7,2.2,1.6,4,1.7,5.8,0,.7-1.7,2.1-2.6,2.1a3.91,3.91,0,0,1-2.9-1.9c-1.5-3.3-2.7-6.9-4-10.3-8.3,2.7-8.3,2.7-12.1,2,.5-1.5.9-2.9,1.5-4.7,1.6.4,3,.7,4.5,1,.6-1.3,1.2-2.6,1.8-4-4.3-1.7-8.5-3.3-13.8-5.4a45.37,45.37,0,0,1-5,5.2c-.7.6-3,.5-3.4,0a6.17,6.17,0,0,1-.4-5l-4.2-2.7c1.1-1.2,2.1-2.5,3.4-3.9.8-.9,1.6-1.9,2.6-3-1.8-.8-4-1.8-7.4-3.4,1.1,2.8,1.6,4,2.6,6.6-2.5.4-4.7.7-7.8,1.1.7-3.9,1.1-6.5,1.7-9.9-5.2-2.9-9.6-7.6-6.6-15.8a10.91,10.91,0,0,1-.6,1.1,27.57,27.57,0,0,1-3.2,4.9c-.4.4-3.1-.6-3.2-1.2a22.16,22.16,0,0,1,0-6.3,10.46,10.46,0,0,1,.4-1.7c.2-.6.5-1.1.7-1.7.4-1.1,1-2.2,1.5-3.5-2.6-1.6-5.2-3.2-8-5-1,.5-2.5,1.2-4.3,2,1.3,2.6-2.9,6.3,1.8,8.3v8.1c3.9,2.1,5.5,8.1,2.7,11.9a5.18,5.18,0,0,1-4.2,1.7c-6.8-1.2-6.7-1.4-7.1,6.6l1.5,2c1.2,5.4-3.9,5.5-8,6.4l.3,1.2c1.6,0,3.8.7,4.7-.1,3.8-3.2,6.6-3.4,8.8,1.5a2.14,2.14,0,0,0,1.2.8c.2.1.6-.1,1-.3,0-.4.2-1.1,0-1.3-2-2.1-4.5-4.8-.5-6.6a13.23,13.23,0,0,1,9.4-.2c3.7,1.4,7,4,10.1,6.6,5.2,4.3,8.6,10.2,8.8,16.7.1,2.2-4.3,5.5-7.3,6.6-1.9.8-5-1.3-7.4-2.5-.4-.2.1-2.4.3-3.6-2.5-.7-5.2-1.5-8.7-2.5,1.2,1.9,2.2,2.9,2.3,4.1.2,1.4.1,3.3-.7,4.1s-2.7.6-4,.3c-4.6-1.1-7.8-3.8-7.9-8.5-2.3,2-4.4,4.3-6.8,5.9a88,88,0,0,1-10.9,5.9c-3.1,1.5-6.3-.2-7.4-3.7-.9-2.8-2.5-4.2-5.8-4.2s-6.3-1.4-9.5-1.9c-4.7-.8-9.4-2.1-14.1-1.8-7,.5-9.2-.9-8.6-7.8.1-.8.6-1.7.3-2.3-3.9-7.2-1.7-13.6,1.1-20.6,1.4-3.5-1.1-8.5-1.6-12.9-.2-1.7.2-3.4,0-5.1a121.29,121.29,0,0,0-1.6-13.5c-.3-1.5-2.5-3-4.1-3.7a90.3,90.3,0,0,0-9.2-3.1c-1.6-1.1-3.3-3.3-4.9,0-2.5-1-5.1-1.9-7.5-3.1-2.1-1.1-3.9-3-6.1-4-3.4-1.6-4.2-3.7-2.8-7.1,1.6-3.9,2.9-8,4.3-12,2.8-7.8-1-15.2-1.5-22.8a72.7,72.7,0,0,1-.3-10.4c.1-1.3,2.1-2.3,3.2-3.5,1.1,1.1,3.1,2.1,3.3,3.4.6,3.8-1,8.4,5.1,9.3.8.1,1.2,2.7,1.8,4.2,5.4-3.1,6-5.5,3.3-10.5a26,26,0,0,1-2.8-8.1c-.6-4.8-3-7.8-7.6-8.8l.1-.3s2.5-.2,7.5,3.6,20.3,2.3,27.3,0,11.9-1.9,21.3-1.4,15.3,3.8,24.3,8.2,14.8.3,23.3,1.3,11.6,3.5,20.1,6.5a43.08,43.08,0,0,0,14.3,2.8v.3c-.5,4.1-3,8.1-5,11.9-.4.7-2.6.5-3.4.6-1.8,1.2-3.4,2.4-5,3.5-.2-.3-.5-.7-.7-1-.7,1.4-1.5,2.9-2.2,4.4.9.3,1.9.7,2.9,1.1-.9,2.8-1.6,5.4-2.6,7.8-.3.7-1.6,1.1-2.4,1.3a54,54,0,0,1-5.8,1c-3.9.7-7.7,1.4-11.8,2.1C111.66,248.62,112.66,250.12,116.36,248.62Z"/><path class="cls-4" d="M144.86,90c-6.2-1.4-7.2-12-15.7-9.4,5,3.8,9.9,7.4,14.8,11C144.26,91,144.56,90.52,144.86,90Zm-71,39.3c2.8.6,5.8,1.1,8.1,2.5.9.5.5,3.5.4,5.3a6.79,6.79,0,0,1-.9,2.5c5.1,5.5,7,5.7,8.5.9h-4.8c.1-2.2.2-4.2.3-6.2.1-2.7.2-5.5.3-8.2l-7.3.9a5.64,5.64,0,0,0-1.2.4,6.11,6.11,0,0,1-1.4-.7c.2-.7.5-1.4.7-2.1.7-2.1,1.5-4.2,2.3-6.6-.9-.5-2.2-1.3-3.5-2.2v-.2h0a.1.1,0,0,1-.1-.1c.7-2.7,1.4-5.5,1.9-8.2.3-1.3.7-2.9.1-3.9a5.35,5.35,0,0,1-.8-3.7,7.54,7.54,0,0,1,2.5-4.1c2.3-2.1,4.6-4.1,6.5-5.7-2.8-1.4-5.4-2.8-8-4-.9-.4-2-1.1-2.7-.9-4.9,1.7-9.7,3.7-13.3,5.1.2,4.5,0,7.7.7,10.8.4,1.9,0,2.7-.8,3.1-1.6.8-4.8-.6-4.6,1.8.8,3,1.5,6.1,2.3,9.3,1.5-1.2,3.1-2.5,4.4-3.5-.8-1.7-1.5-3.3-2.2-4.9a11.73,11.73,0,0,1,1.1-.5c2.4-1.1,4.8-2.1,7.2-3.2a2.35,2.35,0,0,1-.3-1.3,23.15,23.15,0,0,1,1.8-4.6c.1-.2,2.7.5,2.7.8a7.57,7.57,0,0,1-.1,1.5,24.09,24.09,0,0,1-.7,3.7c-.2.9-.9,1.6-1.2,2.5-.8,2.1-1.5,4.2-2.1,5.9.7.5,1.6,1.2,2.5,1.9s1.9,1.4,2.9,2.2v.2a.1.1,0,0,1,.1.1c-.1.4-.1.9-.2,1.3v.5a32.18,32.18,0,0,1-.5,6.3,8.94,8.94,0,0,1-3,4.6c-5,4.5-4.4,6.8.1,10.9.3-3.2.3-5.6.7-8C72.46,130.72,73.46,129.22,73.86,129.32Zm-33.2,6.9c1.4-.1,2.7-.3,5.3-.6-2.1-2.1-3.6-3.5-4-3.8-1.6,1.2-2.9,2.3-4,3.2a12.19,12.19,0,0,1-2.6,1.6c-.1,0-.2.1-.4.1a5.88,5.88,0,0,1-3.6-2.1c-4.4-5.6-8.5-11.5-12.7-17.2-1.1,3.4-2.4,7.6-3.7,11.7,4.6,6.6,11.4,7.7,17.8,9.4a35.23,35.23,0,0,1,6.2,2.2c.1,0,.3-.2.7-.6C40,139,40.26,137.62,40.66,136.22Zm.8-27.5c-.1-.3-.3-1.2-.7-2.6-8.6,6.8-8.6,6.8-7.9,8.2C35.66,112.52,38.46,110.62,41.46,108.72Zm2.3,18.6c.4.8,1.2,2.3,2.6,4.8,2.8-6.4,7.5-8.2,14.2-6.9-2.7-2.3-4.4-3.9-5.6-4.9C51.36,122.62,47.66,124.92,43.76,127.32Zm-1.2,21.6a6,6,0,0,0,4.2-.3c1.6-1,.5-9.5-1.2-11.2-.7,2.8-1.5,5.5-2.2,8-2.2.1-3.9.2-6.9.4C39.36,147.32,40.86,148.42,42.56,148.92Zm132.3,42.8c-1.9-.7-3.4-3.4-4.5-5.5-.6-1.2.2-3.1.4-4.6a15.52,15.52,0,0,0-2.1-.4,46.07,46.07,0,0,0-1.4,6.2c-.1,1.2,1,2.6.7,3.8a41.23,41.23,0,0,1-2.4,6.7,12.62,12.62,0,0,1-3.4-1.3c-2.3-1.9-3.7-4.2-1.7-7.2h0v-.1a.37.37,0,0,0,.1-.3.44.44,0,0,0-.1.3h0c-3-.8-5.9-1.4-8.7-2.4-.4-.2-.5-2.9-.1-3.4l.1-.1a57.67,57.67,0,0,1,7.7-2.6c.1-.6.3-2.4.4-4.3-1.1-.7-2.3-1.5-3.2-2.1-2.4,2.7-4.5,5.5-6.8,8a28.34,28.34,0,0,1-2.4,2.5c-2.6,2.6-3.4,5.4-1.7,8.4,3.5,6.3,2.9,13.1,2.1,19.7a42.7,42.7,0,0,1-14.3-2.8c-8.5-3.1-11.6-5.6-20.1-6.5s-14.3,3.1-23.3-1.3-15-7.7-24.3-8.2-14.3-.9-21.3,1.4-22.1,3.8-27.3,0-7.5-3.6-7.5-3.6l-.1.3h-.1c-1.8,2.9.6,8.4-5.7,9.5-.4.1-.9.1-1.4.2.2-5.3-.4-10.5.9-15.2,4-14.5,2.2-29.3,2.9-44,.3-6,.8-12.4,3.1-17.7,2.6-5.8,4.5-11.8,6.6-17.7A94.72,94.72,0,0,1,20.26,97c1.2-2.4,3.1-4.4,4.8-6.6,4.2-5.1,8.6-10.1,12.6-15.6,1.8-2.5,3.3-4.4,6.6-2.9,6.8,3.1,12.7,1.7,18.7-2.8,2-1.5,6.2-.5,9.3,0,17.2,3,23.8-1.4,30.7-11.8,4.1-6.2,7-13.2,10.5-19.8.9-1.7,2.3-3.1,3.4-4.8,2.2-3.4,4.5-6.7,6.4-10.3,1.3-2.4,2.6-4,5.7-3.6,10.8,1.5,19.6-2.1,26.6-10.6,2.2-2.7,5.6-4.5,8.5-6.7,3.1-2.3,6.1-2.1,9.3,1.4-1.5,1.5-3.1,2.9-4.6,4.5-2.5,2.8-5.3,5.3-7.2,8.4-2.7,4.5-2.1,9.2,1.2,13.3a14.91,14.91,0,0,1,3.5,13c-1,5.9.6,12.2.6,18.3,0,2.2-1.1,5.4-2.7,6.4-5.8,3.8-6.7,9.8-8.1,15.6-2.3,9-1,8-8.5,8.5.4,2.1,1.5,4.4,1.1,6.3-1.9,9.6-1.2,14.7,4.7,26.3-6.3,0-12.3-1-17.8.3-5.7,1.3-10.8,4.9-16.2,7.5a5.36,5.36,0,0,0,.5,1.1c5.2-2.2,10.6-4.2,15.7-6.6,4.8-2.3,9.5-1,13.9.5,3.3,1.1,3.4,6.3.1,8.1-4.8,2.6-6.2,6.9-6.4,11.4-.2,5.3-3,5.9-7.1,6-1.7,0-3.3.2-5,.3a7.57,7.57,0,0,1,.1,1.5c5.7-.4,11.4-.7,17.1-1.1-6.1-4.6-5.3-9.3,3.2-17.4,1,1,2.4,1.8,3,3,3.3,6.5,6.9,8.3,13.9,6.6,2.9-.7,5.7-1.6,8.5-2.2,1.3-.3,3.3-.6,4.1.1,4.6,3.8,8.9,7.9,13.3,12l-2,.3c-.8,3.4-1.2,7.1-2.6,10.3-1.9,4.2-3.9,8.7-7,11.9s-4.1,6.6-4.7,10.4C177.76,190,177.66,192.82,174.86,191.72Zm-66.3-103.9c2.1-4.1,4.7-5.3,10.4-3.2-4.1-4.3-8.4-4.4-12-2.4-2.5,1.4-5.7,1.7-8.6,2.3-2.5.5-5.1.8-7.6,1.2a7.72,7.72,0,0,1,.2,1.5c3.2,0,6.9-1,9.2.3,1.7,1,1.5,5.2,2.1,7.4C104,93.12,107.06,90.82,108.56,87.82Zm-64.3,10.7c9.1-.8,9.1-.8,9.5-4.2-3.4.3-6.5.6-9.5.9Z"/><path class="cls-2" d="M314.86,247.62c.2,1.3-1.9,3.8-3.1,4s-2.9-1.9-5.2-3.7c2.3-2.7,3.6-4.2,5-5.8C312.66,244,314.56,245.72,314.86,247.62Z"/><path class="cls-2" d="M302.16,136c1.9.2,3.1,7.6,2.1,10.5-.9,2.6-1.1,5.4-2.2,7.9-.6,1.3-2.3,3.1-3.5,3a45.85,45.85,0,0,1-9.6-1.6c-1.6-.4-2.9-1.5-4.4-2.1-19-7-14.7-6.9-15-23.5-.1-4.8,2.8-9.6,4.8-16,3,2.8,5.3,5.1,7.8,7.2s5,3.7,7.5,5.5c1,.8,2.6,1.2,3.2,2.2A11.25,11.25,0,0,0,302.16,136Z"/><path class="cls-4" d="M238.06,119.12c-.4,1.2-.8,2.4-1.3,3.6-.2.4-.7.7-1,1.1-1.6,2-1.8,6.5-5.5,4.8-2.8-1.3-4.6-4.7-7.2-7.4,4.6-1.3,7.9-2.4,11.1-3C235.36,117.92,236.76,118.82,238.06,119.12Z"/><path class="cls-2" d="M210,219.72c1.6,2.7,1.5,3.2-1.9,6.4-4.3-3.4-11.1-3.9-10.9-11.3C202.06,213.72,207.66,215.92,210,219.72Z"/><path class="cls-4" d="M207.86,53.12c.1,1.1-1.2,2.9-2.4,3.4a11.66,11.66,0,0,0-6.5,10.1c0,1-.7,2.7-1.3,2.8a6.19,6.19,0,0,1-4-.8c-.6-.4-.3-2-.5-3.5a63.51,63.51,0,0,1-6-3.4c-2.4-1.7-2-5.9,1.5-7.3,5.1-2.1,10.8-3.1,16.3-4.2C205.76,50.12,207.76,52,207.86,53.12Z"/><path class="cls-3" d="M190.86,303.52c1.1,1.5,3.2,3.1,3,4.4a88.84,88.84,0,0,1-3.4,14.2c-3.3,10.5-7.1,20.9-10.3,31.5-1.1,3.6-2.3,6.6-6.1,6.2-3.6-.4-3-4.2-4.1-6.8-3.1-7.4,1.9-10.7,6.5-14.7-1.2-1.4-2.2-2.7-3.2-3.9.9-2.4,1.8-4.7,2.7-7h0c5.2-3.1,6.9-8.2,8.4-13.7a28.08,28.08,0,0,1,2.6-6.8C187.86,305.42,189.56,304.62,190.86,303.52Z"/><path class="cls-5" d="M176.06,327.22h0l-.2.2.2-.2Z"/><path class="cls-5" d="M176,327.22Z"/><path class="cls-3" d="M172.66,214.32c1.1,2.1,2,4.3,2.5,5.4-.8,4.8-1.8,8.3-1.9,11.9-.1,3.2-1.2,4.5-4.4,4.3s-6.5.1-6.4-4.1c0-3.9-1.9-8.4,2.8-11.3.4-.3-.1-3.7-1.1-4.4-3.1-2.2-4-8.8-1.1-11.3,2-1.7,4.1-.6,5.2,2S171.26,211.82,172.66,214.32Z"/><path class="cls-5" d="M171.46,330.22c.5-.3.9-.6,1.4-.9C172.36,329.62,171.86,329.92,171.46,330.22Z"/><path class="cls-3" d="M163.66,339.72c.5.8-1.3,3-2.1,4.5-.2.4-.8.5-1.2.8-1.9,1.3-4.1,4.1-5.5,3.7-2.4-.6-4.6-3-6.4-5.1-4.3-4.9-9.8-9.4-8.9-18.3,5.5,3.2,10.2,6,14.9,8.6,1.1.6,2.8.1,3.8.8A19.88,19.88,0,0,1,163.66,339.72Z"/><path class="cls-3" d="M157.06,207.32c1.5,2.6,3.1,4.1,2.8,5-.4,1.4-2.2,2.4-3.4,3.6-1.1-1.3-2.8-2.4-3-3.8C153.36,211,155.16,209.72,157.06,207.32Z"/><path class="cls-3" d="M151.56,231.42c-.2,2-.3,5.1-1.4,5.7-2.2,1-5.1.5-7.7.7-.2-.7-.5-1.5-.7-2.2a51,51,0,0,1,6.2-5.1C148.76,230,151.56,231.22,151.56,231.42Z"/><path class="cls-3" d="M142.16,245.82c-.2,1.6-.5,3.3-.7,5l-1.5.6c-.9-1.3-2.5-2.7-2.4-3.9,0-1,2.1-1.9,3.3-2.8A10.9,10.9,0,0,1,142.16,245.82Z"/><path class="cls-5" d="M134,224.32a5,5,0,0,1,1.3-.4C134.76,224,134.36,224.22,134,224.32Z"/><path class="cls-5" d="M132.16,225.12c.6-.3,1.2-.5,1.8-.8C133.36,224.62,132.76,224.82,132.16,225.12Z"/><path class="cls-5" d="M131,225.52a6.12,6.12,0,0,0,1.2-.5A6.12,6.12,0,0,1,131,225.52Z"/><path class="cls-5" d="M127.06,226.12a7.55,7.55,0,0,0,3.9-.5A8.77,8.77,0,0,1,127.06,226.12Z"/><path class="cls-5" d="M125.76,225.62a6.47,6.47,0,0,0,1.3.4A2,2,0,0,1,125.76,225.62Z"/><path class="cls-5" d="M123.86,224.32a5.67,5.67,0,0,0,1.3,1A5,5,0,0,1,123.86,224.32Z"/><path class="cls-3" d="M115.26,276.52c-.6,1.3-1.1,2.4-1.5,3.5-.2.5-.5,1.1-.7,1.7h-1.9c-.6-1.1-1.2-2.3-2.5-4.6-1.6,2.1-2.6,3.5-3.7,5-.1,0-.1-.1-.2-.1h0v.1c-4.7-2-.5-5.7-1.8-8.3a46.59,46.59,0,0,1,4.3-2A79.79,79.79,0,0,1,115.26,276.52Z"/><path class="cls-5" d="M104.86,281.72Z"/><path class="cls-5" d="M104.86,281.82v0Z"/><path class="cls-3" d="M98.16,305.42c1.4,1.2,2.6,2.1,3.8,3.1-1.3,1.2-2.6,2.3-4.2,3.7l-1.5-2C96.76,308.92,97.26,307.62,98.16,305.42Z"/><path class="cls-5" d="M75.26,115.92h0c-.1.4-.1.9-.2,1.3A5.85,5.85,0,0,0,75.26,115.92Z"/><path class="cls-5" d="M75.26,115.72h0c-1-.7-2-1.5-2.9-2.2C73.26,114.22,74.26,114.92,75.26,115.72Z"/><path class="cls-3" d="M31.26,284.42c.8-.3,3.4,1.5,3.3,2.1a31.83,31.83,0,0,1-2.3,5.8c-.6.1-1.1.1-1.7.2-.9-1.5-2.4-3.1-2.4-4.6C28.16,286.62,30,284.92,31.26,284.42Z"/><path class="cls-3" d="M29.86,295.62c5.1,1.4,5.8,3.1,4.1,7.8-1,2.8-1.3,6-2.6,8.6-.7,1.4-3.1,1.9-4.7,2.9-.8-1.8-1.7-3.6-2.5-5.5a6.69,6.69,0,0,1,0-2,.37.37,0,0,1-.3-.1c.4-2.2.9-4.5,1.3-6.7C25.76,298,25.66,294.42,29.86,295.62Z"/><path class="cls-3" d="M22.46,267.82c6.9,3,3.5,9.7,5.8,14.4-6.9,1.3-10.2-1.9-11-10.3-.2-2-.1-4-.1-6,1.6-3.3,3.3-1.1,4.9,0C22.16,266.72,22.16,267.72,22.46,267.82Z"/><rect class="cls-6" x="257.06" y="107.52" width="59.7" height="59.7"/></g></g></svg>