<svg xmlns="http://www.w3.org/2000/svg" viewBox="0 0 39.08 47.8"><g id="Layer_2" data-name="Layer 2"><g id="Layer_1-2" data-name="Layer 1"><path d="M39.08,19.51a.79.79,0,0,1-.82.79H33.67a.78.78,0,0,1-.44-1.42.91.91,0,0,1,.45-.14h4.59A.8.8,0,0,1,39.08,19.51Z" style="fill:#f9f8fa"/><path d="M33.51,6a.76.76,0,0,1-.17.88L31.77,8.41,30.17,10a.8.8,0,0,1-1.19.05A.79.79,0,0,1,29,8.9c1.05-1.05,2.09-2.1,3.15-3.14a2.58,2.58,0,0,1,.56-.33A.9.9,0,0,1,33.51,6Z" style="fill:#f9f8fa"/><path d="M33.33,32.18A.8.8,0,1,1,32.2,33.3L29,30.08a.75.75,0,0,1-.17-.87.91.91,0,0,1,.75-.54,2.35,2.35,0,0,1,.54.3C31.19,30,32.26,31.11,33.33,32.18Z" style="fill:#f9f8fa"/><path d="M30.94,17.88A11.29,11.29,0,0,1,27.7,28.67,10,10,0,0,0,25,33.06a9.58,9.58,0,0,0-.38,2.61,16.15,16.15,0,0,1,0,2,2.84,2.84,0,0,1-2.84,2.47H17.34a2.89,2.89,0,0,1-2.91-2.9c0-.67,0-1.34,0-2a9.48,9.48,0,0,0-2.17-5.6c-.49-.6-1.07-1.13-1.57-1.71A11.45,11.45,0,0,1,7.93,21.5a11.66,11.66,0,0,1,23-3.62Z" style="fill:#f9f8fa"/><path d="M23,43.69a.79.79,0,1,1,0,1.57c-1.14,0-2.29,0-3.43,0s-2.31,0-3.47,0a.77.77,0,0,1-.77-.68.78.78,0,0,1,.49-.83,1,1,0,0,1,.34-.06Z" style="fill:#f9f8fa"/><path d="M23.69,41.59a.8.8,0,0,1-.75,1.16h-6.8a.8.8,0,0,1-.85-.78.83.83,0,0,1,.86-.81h6.77A.82.82,0,0,1,23.69,41.59Z" style="fill:#f9f8fa"/><path d="M22.06,47a.8.8,0,0,1-.8.81q-1.73,0-3.45,0a.76.76,0,0,1-.78-.84.8.8,0,0,1,.86-.74h3.3A.81.81,0,0,1,22.06,47Z" style="fill:#f9f8fa"/><path d="M20.34.84c0,1.5,0,3,0,4.49a.79.79,0,1,1-1.58,0c0-.74,0-1.48,0-2.22s0-1.48,0-2.22A.78.78,0,0,1,19.52,0,.79.79,0,0,1,20.34.84Z" style="fill:#f9f8fa"/><path d="M10.24,29.16a.77.77,0,0,1-.06.81,1.13,1.13,0,0,1-.1.13L6.86,33.31a.76.76,0,0,1-.9.17.78.78,0,0,1-.27-1.24c.17-.2.37-.37.55-.56C7.13,30.79,8,29.9,8.91,29a2.09,2.09,0,0,1,.48-.31A.85.85,0,0,1,10.24,29.16Z" style="fill:#f9f8fa"/><path d="M10.33,9.41a.84.84,0,0,1-.43.81.76.76,0,0,1-.83-.06L9,10.1C7.9,9,6.79,7.91,5.7,6.8a.78.78,0,0,1,.37-1.29.76.76,0,0,1,.77.2Q8.48,7.33,10.1,9A1.3,1.3,0,0,1,10.33,9.41Z" style="fill:#f9f8fa"/><path d="M6.17,19.4a.77.77,0,0,1-.54.87,1.65,1.65,0,0,1-.32,0H.77A.77.77,0,0,1,0,19.67a.81.81,0,0,1,.5-.89.93.93,0,0,1,.24,0H5.44A.74.74,0,0,1,6.17,19.4Z" style="fill:#f9f8fa"/></g></g></svg>