<svg xmlns="http://www.w3.org/2000/svg" xmlns:xlink="http://www.w3.org/1999/xlink" viewBox="0 0 842.53 128.85"><defs><linearGradient id="linear-gradient" x1="1.82" y1="595.9" x2="1.82" y2="595.46" gradientTransform="matrix(1922, 0, 0, -163, -3080.94, 97131.32)" gradientUnits="userSpaceOnUse"><stop offset="0" stop-color="#006d3b" stop-opacity="0.8"/><stop offset="0.36" stop-color="#107d38" stop-opacity="0.8"/><stop offset="0.67" stop-color="#238d37" stop-opacity="0.8"/><stop offset="1" stop-color="#4fae35" stop-opacity="0.8"/></linearGradient><radialGradient id="radial-gradient" cx="-4.21" cy="590.7" r="0.28" gradientTransform="translate(218.72 -15295.86) scale(24.98 26.06)" gradientUnits="userSpaceOnUse"><stop offset="0.06" stop-color="#f0df54"/><stop offset="0.48" stop-color="#f1bc21"/></radialGradient><radialGradient id="radial-gradient-2" cx="-5.03" cy="590.28" r="0.46" gradientTransform="matrix(25.49, 6.02, -5.35, 24.7, 3399.75, -14418.57)" gradientUnits="userSpaceOnUse"><stop offset="0.28" stop-color="#f0df54"/><stop offset="0.48" stop-color="#f1bc21"/></radialGradient><radialGradient id="radial-gradient-3" cx="-9.76" cy="588.93" r="0.35" gradientTransform="translate(242.59 -8077.09) scale(13.26 13.83)" gradientUnits="userSpaceOnUse"><stop offset="0.12" stop-color="#f0df54"/><stop offset="0.77" stop-color="#f1bc21"/></radialGradient><radialGradient id="radial-gradient-4" cx="-8.89" cy="592.13" r="0.28" gradientTransform="translate(668.14 -23852.98) scale(38.79 40.46)" xlink:href="#radial-gradient"/><radialGradient id="radial-gradient-5" cx="-9.1" cy="592.79" r="0.46" gradientTransform="matrix(39.56, 9.36, -8.31, 38.41, 5605.49, -22525.76)" xlink:href="#radial-gradient-2"/><radialGradient id="radial-gradient-6" cx="-18.58" cy="591.63" r="0.35" gradientTransform="translate(705.18 -12642.89) scale(20.58 21.47)" xlink:href="#radial-gradient-3"/><radialGradient id="radial-gradient-7" cx="-26.42" cy="592.45" r="0.28" gradientTransform="translate(1527.61 -19432.5) scale(31.58 32.93)" xlink:href="#radial-gradient"/><radialGradient id="radial-gradient-8" cx="-25.38" cy="597.09" r="0.46" gradientTransform="matrix(32.2, 7.62, -6.76, 31.27, 5546.79, -18355.87)" xlink:href="#radial-gradient-2"/><radialGradient id="radial-gradient-9" cx="-51.63" cy="592.23" r="0.35" gradientTransform="translate(1557.78 -10307.31) scale(16.75 17.48)" xlink:href="#radial-gradient-3"/></defs><g id="Layer_2" data-name="Layer 2"><g id="Layer_1-2" data-name="Layer 1"><g id="Top_design_Web" data-name="Top design Web"><g id="Top-design"><path id="Path_157" data-name="Path 157" d="M.75,0H842.49V71.44H.75Z" style="fill:url(#linear-gradient)"/></g><g id="Group_440" data-name="Group 440"><ellipse id="Ellipse_297" data-name="Ellipse 297" cx="699.24" cy="80.64" rx="41.6" ry="36.38" style="fill:#faf9fb"/><ellipse id="Ellipse_298" data-name="Ellipse 298" cx="581.79" cy="86.34" rx="43.07" ry="34.63" style="fill:#faf9fb"/><ellipse id="Ellipse_299" data-name="Ellipse 299" cx="641.67" cy="94.67" rx="33.2" ry="33.31" style="fill:#faf9fb"/><ellipse id="Ellipse_300" data-name="Ellipse 300" cx="780.34" cy="94.67" rx="62.19" ry="33.31" style="fill:#faf9fb"/><ellipse id="Ellipse_293" data-name="Ellipse 293" cx="428.2" cy="80.64" rx="41.6" ry="36.38" style="fill:#faf9fb"/><ellipse id="Ellipse_295" data-name="Ellipse 295" cx="370.21" cy="90.72" rx="33.2" ry="33.31" style="fill:#faf9fb"/><ellipse id="Ellipse_296" data-name="Ellipse 296" cx="500.48" cy="76.7" rx="47.9" ry="33.31" style="fill:#faf9fb"/><g id="Group_439" data-name="Group 439"><ellipse id="Ellipse_287" data-name="Ellipse 287" cx="159.26" cy="82.83" rx="41.6" ry="36.38" style="fill:#faf9fb"/><ellipse id="Ellipse_288" data-name="Ellipse 288" cx="43.07" cy="94.23" rx="43.07" ry="34.63" style="fill:#faf9fb"/><ellipse id="Ellipse_289" data-name="Ellipse 289" cx="101.27" cy="92.91" rx="33.2" ry="33.31" style="fill:#faf9fb"/><ellipse id="Ellipse_290" data-name="Ellipse 290" cx="231.54" cy="78.89" rx="47.9" ry="33.31" style="fill:#faf9fb"/><g id="arla-blomst"><ellipse id="Ellipse_2" data-name="Ellipse 2" cx="117.58" cy="72.63" rx="13.36" ry="14.42" style="fill:none"/><path id="Path_166" data-name="Path 166" d="M109.76,64.39a12.52,12.52,0,0,0,2.61,3,5.65,5.65,0,0,1-.76-2.63,3.25,3.25,0,0,1,2.27-2.89,5.51,5.51,0,0,1,4.41-.09c1.47.61,1.81,1,2.23,2.32a7.05,7.05,0,0,1-.25,4c-.34.87-1.39,2.63-1.73,2.58s-.75-.87-1.43-1a1.67,1.67,0,0,0-1.68.48,2.27,2.27,0,0,0-.67,1.62s-.84,1.1-3.61,1.1c-2.19,0-3.91-2.63-3.7-4.56C107.66,66.58,108.29,64.91,109.76,64.39Z" style="fill:url(#radial-gradient)"/><path id="Path_167" data-name="Path 167" d="M118.08,72.28a10.13,10.13,0,0,0,2.44-3.07c.71-1.32,1.43-3.73,2.6-3.73,1,0,2.52,1.54,3.07,3.16a4.61,4.61,0,0,1,0,3.11,3.83,3.83,0,0,1-2.77,1.71,4.28,4.28,0,0,0,2.35.18c.34-.09.13,1.71-1.13,2.89a3.32,3.32,0,0,1-2.57.88,4.71,4.71,0,0,1-2.48-1.23A6.08,6.08,0,0,1,118,73,.87.87,0,0,1,118.08,72.28Z" style="fill:url(#radial-gradient-2)"/><path id="Path_168" data-name="Path 168" d="M118.08,72.28a10.13,10.13,0,0,0,2.44-3.07c.71-1.32,1.43-3.73,2.6-3.73" style="fill:none"/><path id="Path_169" data-name="Path 169" d="M112.91,73.2c.72-.31,3.15-1,3.91-.4a3.39,3.39,0,0,1,.63,3.33,3.27,3.27,0,0,1-1.93,2.37,4.72,4.72,0,0,1-3.53-.57c-.42-.26-1.73-1-2-2.1S111.61,73.72,112.91,73.2Z" style="fill:url(#radial-gradient-3)"/></g><ellipse id="Ellipse_294" data-name="Ellipse 294" cx="312.01" cy="89.84" rx="43.07" ry="34.63" style="fill:#faf9fb"/><g id="arla-blomst-2"><ellipse id="Ellipse_2-2" data-name="Ellipse 2-2" cx="329.55" cy="67.73" rx="20.75" ry="22.39" style="fill:none"/><path id="Path_166-2" data-name="Path 166-2" d="M317.41,54.94s2.22,3.47,4,4.62c-.92-2.24-1.11-2.31-1.18-4.08s1.31-3.61,3.52-4.49a8.61,8.61,0,0,1,6.85-.14c2.29,1,2.81,1.5,3.46,3.61a10.82,10.82,0,0,1-.39,6.12c-.52,1.36-2.15,4.09-2.67,4s-1.18-1.36-2.22-1.63a2.56,2.56,0,0,0-2.61.74,3.54,3.54,0,0,0-1.05,2.52s-1.3,1.71-5.61,1.71c-3.39,0-6.06-4.09-5.74-7.08C314.15,58.34,315.13,55.75,317.41,54.94Z" style="fill:url(#radial-gradient-4)"/><path id="Path_167-2" data-name="Path 167-2" d="M330.33,67.18a15.67,15.67,0,0,0,3.78-4.76c1.11-2,2.22-5.78,4.05-5.78,1.56,0,3.91,2.38,4.76,4.9a7.15,7.15,0,0,1,0,4.83c-1.18,2.31-4.31,2.65-4.31,2.65a6.71,6.71,0,0,0,3.66.27c.52-.13.19,2.66-1.77,4.49a5.09,5.09,0,0,1-4,1.36,7.15,7.15,0,0,1-3.84-1.9,9.29,9.29,0,0,1-2.55-5A1.36,1.36,0,0,1,330.33,67.18Z" style="fill:url(#radial-gradient-5)"/><path id="Path_168-2" data-name="Path 168-2" d="M330.33,67.18a15.67,15.67,0,0,0,3.78-4.76c1.11-2,2.22-5.78,4.05-5.78" style="fill:none"/><path id="Path_169-2" data-name="Path 169-2" d="M322.3,68.61c1.11-.47,4.9-1.49,6.07-.61.85.61,1.63,2.79,1,5.17a5.1,5.1,0,0,1-3,3.68,7.34,7.34,0,0,1-5.48-.89c-.65-.41-2.68-1.56-3.07-3.26C317.54,71.2,320.28,69.43,322.3,68.61Z" style="fill:url(#radial-gradient-6)"/></g></g><g id="arla-blomst-3"><ellipse id="Ellipse_2-3" data-name="Ellipse 2-3" cx="698.42" cy="46.91" rx="16.89" ry="18.22" style="fill:none"/><path id="Path_166-3" data-name="Path 166-3" d="M688.54,36.5a15.85,15.85,0,0,0,3.29,3.76c-.74-1.82-.9-1.88-1-3.32a4.1,4.1,0,0,1,2.87-3.66,7,7,0,0,1,5.57-.11c1.86.78,2.29,1.22,2.82,2.94a8.88,8.88,0,0,1-.32,5c-.43,1.1-1.75,3.32-2.18,3.26s-.95-1.1-1.81-1.33a2.1,2.1,0,0,0-2.12.61,2.89,2.89,0,0,0-.85,2s-1.06,1.39-4.57,1.39c-2.76,0-4.94-3.33-4.67-5.76C685.89,39.27,686.68,37.16,688.54,36.5Z" style="fill:url(#radial-gradient-7)"/><path id="Path_167-3" data-name="Path 167-3" d="M699.06,46.47a12.81,12.81,0,0,0,3.08-3.88c.9-1.66,1.8-4.71,3.29-4.71,1.27,0,3.19,1.94,3.88,4a5.9,5.9,0,0,1,0,3.93c-1,1.89-3.51,2.16-3.51,2.16a5.47,5.47,0,0,0,3,.23c.43-.12.16,2.16-1.43,3.65A4.17,4.17,0,0,1,704.1,53,5.85,5.85,0,0,1,701,51.4a7.53,7.53,0,0,1-2.07-4A1.06,1.06,0,0,1,699.06,46.47Z" style="fill:url(#radial-gradient-8)"/><path id="Path_168-3" data-name="Path 168-3" d="M699.06,46.47a12.81,12.81,0,0,0,3.08-3.88c.9-1.66,1.8-4.71,3.29-4.71" style="fill:none"/><path id="Path_169-3" data-name="Path 169-3" d="M692.52,47.63c.91-.39,4-1.22,4.94-.5.69.5,1.33,2.27.8,4.21a4.14,4.14,0,0,1-2.44,3,6,6,0,0,1-4.46-.72c-.53-.33-2.18-1.27-2.5-2.66C688.65,49.73,690.88,48.29,692.52,47.63Z" style="fill:url(#radial-gradient-9)"/></g></g></g></g></g></svg>